<?xml version="1.0" encoding="utf-8"?>
<!-- Generator: Adobe Illustrator 26.0.1, SVG Export Plug-In . SVG Version: 6.00 Build 0)  -->
<svg version="1.1" id="Слой_1" xmlns="http://www.w3.org/2000/svg" xmlns:xlink="http://www.w3.org/1999/xlink" x="0px" y="0px"
	 viewBox="0 0 69.47 67.05" style="enable-background:new 0 0 69.47 67.05;" xml:space="preserve">
<style type="text/css">
	.st0{fill:#FF6600;}
</style>
<path class="st0" d="M69.33,43.76c0.23-1.67,0.19-3.29-0.17-4.65c-0.12-0.47-0.28-0.89-0.46-1.28c-0.09-0.22-0.17-0.44-0.27-0.66
	c-1.06-2.27-2.79-3.72-4.89-4.09c-3.94-0.69-7.75,2.66-9.01,7.75l-5.96-1.05c0.03-0.14,0.04-0.29,0.03-0.44
	c-0.06-0.64-0.72-6.27-3.82-8.36c-1.35-0.91-3.01-1.22-4.43-1.3l0.14-1.67c1.85,0.07,3.4,0.1,3.54,0.11c0.01,0,0.02,0,0.03,0
	c0.01,0,0.02,0,0.03,0c5.37-0.11,7.08-3.1,7.62-4.87c0.86-2.83-0.15-6.44-2.2-8.21c-0.11-0.14-0.25-0.25-0.4-0.35
	c-1.62-1.32-4.86-2.4-7.87-1.87c-2.44,0.43-4.36,1.81-5.56,3.99c-1.64,2.98-2.78,3.18-3.78,3.35c-0.55,0.1-1.23,0.21-1.91,0.76
	c-1.35,1.23-1.84,2.46-1.46,3.67c0.51,1.64,2.41,2.58,6.16,3.07c0.66,0.09,1.69,0.16,2.82,0.22l-0.15,1.76
	c-0.67-0.47-1.43-0.8-2.25-0.94c-1.98-0.34-4,0.38-5.67,2.06c-0.39,0.39-0.74,0.82-1.07,1.28c-0.7,0.08-1.28-0.01-2.27-0.37
	c-1.68-0.61-3.06-3.94-3.35-4.96c-0.02-0.15-0.06-0.29-0.13-0.43c0.21-0.05,0.36-0.09,0.39-0.09c0.51-0.13,0.91-0.52,1.06-1.02
	c0.41-1.36,0.07-2.27-0.28-2.8c-0.1-0.15-0.21-0.28-0.33-0.4c0.47-2.57,0.35-3.92-0.42-5.06c-0.34-0.51-0.87-0.83-1.4-1.04
	c0.01-0.34,0-0.73-0.01-1.2c-0.03-0.83-0.29-1.68-0.57-2.36c1.78-0.93,3.32-2.44,4.35-3.45c0.19-0.19,0.37-0.36,0.51-0.5l0.38-0.36
	c0.94-0.9,2.17-2.05,3.5-2.52c0.08,0.34,0.27,0.66,0.58,0.88c0.26,0.19,0.57,0.28,0.87,0.28c0.47,0,0.93-0.22,1.22-0.63
	c0.2-0.28,0.34-0.56,0.45-0.84l4.84-0.32c0.83-0.06,1.45-0.77,1.4-1.6c-0.06-0.83-0.78-1.46-1.6-1.4l-4.9,0.33
	c-0.17-0.27-0.35-0.51-0.55-0.69c-0.61-0.56-1.58-0.54-2.14,0.07c-0.22,0.24-0.33,0.54-0.36,0.84c-0.07,0.01-0.13,0.03-0.19,0.06
	c-2.23,0.56-3.97,2.2-5.19,3.36l-0.36,0.34c-0.16,0.15-0.35,0.34-0.56,0.55c-1.28,1.26-3.94,3.88-5.79,3.36
	C16.45,9.78,15.27,7,14.62,4.23c0.04-0.01,0.09,0,0.13-0.01c0.81-0.17,1.34-0.96,1.17-1.77C15.65,1.1,14.9,0.5,14.32,0.24
	c-1.34-0.61-2.71,0.11-2.97,0.26c-0.71,0.41-0.95,1.31-0.56,2.02c0.14,0.25,0.34,0.44,0.58,0.57c0,0.04,0,0.09,0.01,0.13
	c0.23,1.44,1.55,8.67,5.31,9.73c0.44,0.12,0.88,0.18,1.31,0.18c0.05,0,0.09-0.01,0.13-0.01c0.23,0.51,0.47,1.14,0.48,1.63
	c0.01,0.35,0.02,0.62,0.02,0.84c-0.58,0.14-1.07,0.4-1.41,0.79c-0.66,0.76-1.07,1.96-1.31,2.97c-0.91-0.21-1.82-0.38-2.68-0.51
	c-0.47-0.1-0.89-0.17-1.21-0.21c-0.4-0.04-0.88-0.05-1.39-0.03c-0.31,0-0.59,0.01-0.83,0.04c-2.68,0.2-6.05,0.91-6.99,1.24
	l-0.16,0.05c-1.95,0.66-2.19,1.69-2.59,4.58c-0.23,1.65,0.37,2.62,0.91,3.16c0.37,0.36,0.81,0.6,1.28,0.77
	c0.28,1.94,0.87,5.74,1.39,6.95c0.34,0.8,1.2,1.45,2.62,2c1.55,0.59,3.56,0.98,5.69,0.98c0.3,0,0.6-0.03,0.9-0.04
	c-0.09,0.42-0.17,0.9-0.24,1.45c-3.64,1.23-7.03,4.27-8.96,8.55c-1.56,3.44-1.97,7.16-1.16,10.49c0.84,3.46,2.89,6.08,5.77,7.39
	c1.26,0.57,2.61,0.86,3.99,0.86c1.77,0,3.59-0.47,5.36-1.39c0.5-0.26,0.99-0.57,1.46-0.9c2.39-1.37,4.41-3.63,5.74-6.41l1.29,0.36
	c0.13,0.04,0.27,0.05,0.4,0.05c0.66,0,1.26-0.44,1.44-1.1c0.22-0.8-0.25-1.62-1.04-1.85l-1.04-0.29c0.51-1.93,0.63-3.85,0.39-5.61
	c-0.19-3.07-1.3-5.86-3.19-7.83c0.21-1.1,0.37-2.07,0.43-2.81c0.2-2.27-0.58-3.82-1.54-4.8l0.26-2.29c0.78,1.02,1.74,1.89,2.87,2.31
	c0.69,0.25,1.29,0.4,1.83,0.49c-0.21,0.62-0.38,1.26-0.5,1.93c-0.43,2.43-0.16,4.85,0.76,6.81c1,2.15,2.64,3.52,4.63,3.87
	c0.33,0.06,0.65,0.09,0.98,0.09c3.09,0,5.95-2.55,7.23-6.36l14.14,2.5c-0.05,1.89,0.29,3.7,1.01,5.25c1.06,2.27,2.79,3.72,4.89,4.09
	c0.35,0.06,0.69,0.09,1.03,0.09c1.79,0,3.5-0.82,4.91-2.21c1.15-1.03,2.14-2.64,2.79-4.65c0.05-0.14,0.08-0.28,0.13-0.42
	c0.04-0.12,0.07-0.25,0.1-0.37c0.04-0.16,0.08-0.31,0.11-0.47c0.02-0.07,0.04-0.15,0.05-0.22c0.01-0.05,0.01-0.1,0.02-0.15
	c0.02-0.11,0.05-0.21,0.07-0.32C69.27,44.21,69.3,43.99,69.33,43.76z M43.26,15.7c1.31,0.07,2.55,0.48,3.38,0.94
	c-0.14,0.37-0.32,0.79-0.51,1.16c-0.76-0.44-1.84-0.92-3.22-1.14C43.03,16.32,43.15,15.96,43.26,15.7z M31.47,23.72
	c0.07-0.11,0.2-0.28,0.45-0.51c0.1-0.03,0.32-0.07,0.49-0.1c1.72-0.3,3.74-0.94,5.9-4.86c0.39-0.7,0.88-1.26,1.48-1.68
	c-0.11,0.33-0.23,0.68-0.28,0.78c-0.24,0.48-0.21,1.04,0.08,1.49c0.29,0.45,0.78,0.7,1.33,0.68c2.87-0.14,4.36,1.29,4.41,1.33
	c0.19,0.2,0.44,0.33,0.7,0.4c0.1,0.02,0.24,0.05,0.4,0.05c0.3,0,0.67-0.08,1.06-0.37c0.42-0.31,0.87-0.96,1.26-1.7
	c0.31,0.98,0.4,2.11,0.09,3.11c-0.67,2.19-2.96,2.71-4.78,2.75c-0.52-0.01-6.93-0.17-9-0.44C32.64,24.37,31.76,23.93,31.47,23.72z
	 M17.65,54.37c0,0.31-0.25,0.56-0.56,0.56s-0.56-0.25-0.56-0.56s0.25-0.56,0.56-0.56S17.65,54.06,17.65,54.37z M19.29,45.23
	c-0.49,2.13-1.03,4.26-1.4,5.68c-0.26-0.06-0.52-0.1-0.8-0.1c-1.96,0-3.56,1.6-3.56,3.56c0,1.96,1.6,3.56,3.56,3.56
	c0.97,0,1.85-0.39,2.49-1.02l1.98,0.55c-1.03,1.96-2.45,3.59-4.1,4.76c-1.78,0.99-3.58,1.17-5.07,0.5c-1.5-0.68-2.56-2.17-2.98-4.19
	c-0.46-2.2-0.12-4.71,0.95-7.09c1.74-3.85,4.98-6.32,7.88-6.32C18.6,45.11,18.95,45.15,19.29,45.23z M22.7,54.66l-2.08-0.58
	c-0.03-0.34-0.1-0.66-0.21-0.97c0.22-0.81,0.89-3.36,1.55-6.15c0.65,0.84,1.09,1.92,1.28,3.14C23.33,51.55,23.16,53.1,22.7,54.66z
	 M5.81,25.61c-0.16,0.03-0.34,0.05-0.51,0.07c-0.42,0.05-0.77,0.07-1.05,0.08c-0.03,0-0.06,0-0.1,0c-0.75,0-1.01-0.14-1.1-0.23
	c-0.04-0.04-0.09-0.23-0.04-0.59c0.06-0.45,0.12-0.82,0.18-1.14c1.11,0.68,2.82,1.08,4.56,1.31c-0.64,0.19-1.27,0.37-1.92,0.5
	C5.83,25.6,5.82,25.6,5.81,25.61z M11.14,21.59c0.34,0.02,0.73,0.06,1.14,0.12c0.72,0.13,1.72,0.37,2.81,0.65
	c-0.74,0.04-1.52,0.07-2.38,0.06c-2.13-0.01-3.83-0.17-5.12-0.37c0.75-0.15,1.58-0.29,2.4-0.41C10.42,21.6,10.81,21.59,11.14,21.59z
	 M19.39,18.48c0.31-0.05,0.93,0.05,1.21,0.2c0.11,0.21,0.21,0.66,0.02,1.99c-0.55-0.18-1.15-0.37-1.81-0.56
	C18.97,19.43,19.18,18.81,19.39,18.48z M6.34,34.09c-0.26-0.75-0.68-3.05-1.03-5.39c0.1-0.01,0.19-0.03,0.28-0.04
	c0.43-0.05,0.82-0.11,1.13-0.17c0.64-0.11,1.19-0.29,1.78-0.48c0.12-0.04,0.24-0.08,0.37-0.12c0.42-0.12,0.84-0.24,1.25-0.34
	c0.05-0.01,0.11-0.02,0.17-0.03c0.1-0.02,0.2-0.04,0.3-0.06c0.33-0.06,0.7-0.1,1.1-0.14c1.41,0.06,2.81,0.02,4.09-0.07
	c1.2-0.06,2.37-0.2,3.41-0.35c-0.21,0.77-0.46,1.63-0.72,2.49c-0.36,1.08-1.27,3.82-1.52,4.44c0,0,0,0.01,0,0.01
	c-0.1,0.23-0.2,0.45-0.29,0.64C12.28,36.29,7.22,34.85,6.34,34.09z M16.08,37.83c0.77-0.2,1.54-0.45,2.28-0.79
	c0.27-0.13,0.5-0.33,0.65-0.59c0.06-0.1,0.12-0.22,0.18-0.33c0.45,0.21,1.46,0.91,1.29,2.88c-0.03,0.32-0.08,0.7-0.14,1.12
	c-0.08-0.04-0.15-0.09-0.23-0.12c-1.39-0.63-2.87-0.88-4.36-0.83C15.85,38.6,15.97,38.12,16.08,37.83z M5.38,58.1
	c-0.65-2.68-0.3-5.71,0.98-8.54c2.06-4.55,6.03-7.42,9.74-7.42c0.34,0,0.68,0.03,1.02,0.08c-3.72,0.53-7.46,3.5-9.49,7.97
	c-1.34,2.95-1.75,6.12-1.16,8.94c0.24,1.13,0.63,2.16,1.15,3.06C6.57,61.17,5.79,59.78,5.38,58.1z M66.23,44.15
	c-0.01,0.07-0.03,0.13-0.04,0.2c-0.08,0.36-0.17,0.7-0.27,1.03c-0.03,0.08-0.06,0.17-0.09,0.25c-0.06,0.17-0.12,0.33-0.18,0.49
	c-0.46,1.11-1.08,2.06-1.79,2.77c-0.32,0.27-0.61,0.41-0.8,0.37c-0.69-0.15-1.54-2.54-0.83-5.85c0.68-3.18,2.35-5,3.08-5
	c0.03,0,0.06,0,0.08,0.01c0.14,0.03,0.33,0.21,0.51,0.52c0.53,1.4,0.69,3.06,0.41,4.78C66.27,43.86,66.26,44.01,66.23,44.15z
	 M45.55,39.25l-4.94-0.87c0.21-2.11-0.11-4.08-0.84-5.7c1.12,0.02,2.43,0.2,3.32,0.79C44.46,34.39,45.29,37.34,45.55,39.25z
	 M37.19,37.77l-1.52-0.27c-0.82-0.14-1.59,0.4-1.74,1.22c-0.14,0.82,0.4,1.59,1.22,1.74l1.44,0.25c-0.27,0.68-0.62,1.28-1.02,1.73
	c-0.44,0.48-0.92,0.75-1.21,0.69c-0.62-0.13-1.42-1.95-0.87-4.53c0.26-1.23,0.79-2.35,1.45-3.08c0.39-0.44,0.82-0.7,1.11-0.7
	c0.03,0,0.06,0,0.09,0.01C36.63,34.93,37.22,36.06,37.19,37.77z M29.86,42.45c-0.66-1.41-0.84-3.2-0.52-5.03
	c0.17-0.98,0.49-1.89,0.9-2.7c0.15-0.04,0.3-0.07,0.46-0.11c0.3-0.07,0.62-0.15,1.06-0.26l0.41-0.12c-0.73,1.04-1.29,2.32-1.6,3.73
	c-0.53,2.46-0.23,4.71,0.69,6.22C30.55,43.7,30.1,42.95,29.86,42.45z M57.84,47.79c-0.72-1.54-0.92-3.48-0.57-5.46
	C57.9,38.75,60.24,36,62.53,36c0.16,0,0.33,0.01,0.49,0.04c0.06,0.01,0.12,0.03,0.17,0.04c-1.74,1.12-3.24,3.54-3.91,6.69
	c-0.61,2.85-0.37,5.43,0.52,7.18C59.01,49.58,58.33,48.84,57.84,47.79z"/>
</svg>
