<?xml version="1.0" encoding="utf-8"?>
<!-- Generator: Adobe Illustrator 26.0.1, SVG Export Plug-In . SVG Version: 6.00 Build 0)  -->
<svg version="1.1" id="Слой_1" xmlns="http://www.w3.org/2000/svg" xmlns:xlink="http://www.w3.org/1999/xlink" x="0px" y="0px"
	 viewBox="0 0 71.47 72.88" style="enable-background:new 0 0 71.47 72.88;" xml:space="preserve">
<style type="text/css">
	.st0{fill:#FF6600;}
</style>
<g>
	<path class="st0" d="M62.14,62.45c-1.43,0-2.6,1.17-2.6,2.6s1.17,2.6,2.6,2.6s2.6-1.17,2.6-2.6S63.57,62.45,62.14,62.45z
		 M62.14,65.45c-0.22,0-0.4-0.18-0.4-0.4s0.18-0.4,0.4-0.4s0.4,0.18,0.4,0.4S62.36,65.45,62.14,65.45z"/>
	<path class="st0" d="M71.35,60.18c-0.49-1.65-3.22-5.27-8.1-5.27c0,0,0,0,0,0c-0.29,0-0.57,0.02-0.85,0.04l-0.79-7.11
		c0.06-0.07,0.12-0.14,0.19-0.21c0.1-0.1,0.15-0.23,0.21-0.35l0.01,0.01c0,0,2.43-2.06,3.16-2.69c0.43-0.38,0.64-0.92,0.58-1.49
		c-0.06-0.52-0.18-1.61-4.67-4.05c-0.15-0.08-0.31-0.13-0.47-0.16l-0.18-1.61c0.67,0.12,1.36-0.24,1.64-0.89
		c0.32-0.76-0.04-1.64-0.8-1.97c-0.41-0.17-0.81-0.28-1.19-0.35L56.83,4.74l5.4-0.39c0.08,0.35,0.27,0.68,0.59,0.91
		c0.26,0.19,0.57,0.28,0.87,0.28c0.47,0,0.93-0.22,1.22-0.63c0.19-0.26,0.32-0.53,0.43-0.79l2.33-0.17c0.83-0.06,1.45-0.78,1.39-1.6
		c-0.06-0.83-0.79-1.44-1.6-1.39l-2.33,0.17c-0.17-0.29-0.37-0.55-0.58-0.74c-0.61-0.56-1.56-0.52-2.12,0.09
		c-0.23,0.25-0.33,0.56-0.36,0.87l-5.94,0.43c-0.31-0.29-0.74-0.46-1.19-0.41c-0.42,0.05-0.77,0.26-1.01,0.56l-5.67,0.41
		c-0.17-0.29-0.37-0.53-0.57-0.72c-0.61-0.56-1.58-0.54-2.14,0.07c-0.23,0.25-0.34,0.56-0.37,0.87L40.81,2.9
		c-0.83,0.06-1.45,0.78-1.39,1.6c0.06,0.79,0.72,1.39,1.49,1.39c0.04,0,0.07,0,0.11,0l4.34-0.31c0.07,0.36,0.27,0.7,0.59,0.93
		c0.26,0.19,0.57,0.28,0.87,0.28c0.47,0,0.93-0.22,1.22-0.63c0.19-0.27,0.33-0.54,0.44-0.81l5.34-0.39l3.25,29.37
		c-0.5,0.18-0.91,0.41-1.19,0.62c-0.66,0.5-0.78,1.45-0.28,2.1c0.29,0.38,0.74,0.59,1.19,0.59c0.21,0,0.42-0.06,0.63-0.16l0.21,1.91
		c-0.95,0.44-6.98,3.74-10.72,18.61l-26.55-4.01c-2.7-6.55-9.27-8.81-14.6-7.59C2,47.26-0.31,49.72,0.03,52.51
		c0.06,0.47,0.33,0.88,0.74,1.12c0.26,0.15,0.55,0.2,0.84,0.19c-0.43,0.96-0.69,2.02-0.69,3.15c0,4.28,3.48,7.75,7.83,7.75
		c0,0,0,0,0,0c4.55-0.23,6.22-2.7,7-4.62C22.01,61.31,32,63.2,46.82,66c0.09,0.02,0.18,0.02,0.27,0.03c0,0,0.01,0,0.01,0
		c0.14,0,0.27-0.02,0.4-0.06c0.04-0.01,0.08-0.03,0.12-0.04c0.05-0.02,0.11-0.03,0.16-0.06l5.87-2.98
		c-0.06,0.63-0.06,1.27,0.01,1.94c0.01,0.11,0.04,0.23,0.07,0.33c0.19,0.56,0.65,1.01,1.27,1.3c0.63,3.67,3.79,6.42,7.63,6.42
		c4.28,0,7.76-3.48,7.76-7.76c0-0.82-0.14-1.62-0.39-2.38c0.14-0.07,0.27-0.13,0.38-0.17c0.11-0.04,0.22-0.09,0.32-0.16
		C70.96,62.24,71.77,61.58,71.35,60.18z M63.24,57.92C63.24,57.92,63.24,57.92,63.24,57.92c2.53,0,4.16,1.46,4.86,2.43
		c-0.13,0.07-0.26,0.15-0.4,0.22c-0.15,0.08-0.3,0.17-0.45,0.25c-1.16-1.3-2.78-2.02-4.55-1.99c-0.28,0-0.56,0.01-0.84,0.05
		c-2.19,0.28-4.02,1.66-5.13,3.73c0.19-0.94,0.6-1.8,1.25-2.52C59.22,58.73,61.18,57.92,63.24,57.92z M59.44,55.63
		c-1.05,0.4-2.02,0.96-2.85,1.67c0.48-1.67,1.23-3.73,2.39-5.79L59.44,55.63z M62.15,43.25c-0.32,0.27-0.66,0.56-0.97,0.82
		l-0.17-1.58C61.44,42.76,61.83,43.02,62.15,43.25z M45.89,62.77c-13.83-2.61-22.61-4.28-28.19-5.34l1.72-0.55l26.83,4.06
		C46.13,61.53,46.01,62.14,45.89,62.77z M6.44,49.32c3.77-0.86,8.55,0.42,10.85,5.08c-1.11,0.35-2.5,0.8-3.61,1.16l-0.18,0.06
		c-0.3-1.56-1.06-3.66-2.96-4.94c-1.09-0.74-2.39-1.11-3.88-1.11c-0.41,0-0.84,0.03-1.29,0.09C5.72,49.51,6.08,49.41,6.44,49.32z
		 M8.69,61.72c-2.62,0-4.76-2.13-4.76-4.76c0-2.01,1.17-3.64,3.06-4.31c2.08,0.12,3,1.91,3.4,3.32l-2.46-0.49
		c-0.77-0.15-1.51,0.31-1.72,1.05c0,0,0,0,0,0c0,0,0,0,0,0c-0.01,0.02-0.02,0.04-0.02,0.06c-0.01,0.06-0.02,0.12-0.03,0.18
		c0,0.03-0.01,0.05-0.01,0.08c0,0.05,0,0.1,0,0.15c0,0.05,0,0.11,0.01,0.16c0,0.01,0.01,0.03,0.01,0.04
		c0.09,0.55,0.47,1.03,1.04,1.2c0.19,0.06,1.89,0.4,5.52,1.1C12.08,60.75,11.03,61.6,8.69,61.72z M49.14,61.81
		c2.67-13.02,7.03-17.68,8.87-19.12l0.47,4.21c-3.96,4.98-5.2,10.83-5.53,12.98L49.14,61.81z M62.64,69.88
		c-2.16,0-3.97-1.42-4.55-3.4c0.1-0.05,0.2-0.1,0.29-0.17c0.29-0.21,0.49-0.51,0.57-0.85c0.5-2.03,1.78-3.38,3.42-3.59
		c0.14-0.02,0.28-0.02,0.42-0.02c1.09,0.03,2.03,0.62,2.58,1.64c0.27,0.49,0.79,0.78,1.33,0.77c0.2,0.01,0.41-0.01,0.6-0.09
		c0.07,0.31,0.1,0.63,0.1,0.96C67.39,67.74,65.26,69.88,62.64,69.88z"/>
</g>
</svg>
