<?xml version="1.0" encoding="utf-8"?>
<!-- Generator: Adobe Illustrator 26.0.1, SVG Export Plug-In . SVG Version: 6.00 Build 0)  -->
<svg version="1.1" id="Слой_1" xmlns="http://www.w3.org/2000/svg" xmlns:xlink="http://www.w3.org/1999/xlink" x="0px" y="0px"
	 viewBox="0 0 59.43 68.75" style="enable-background:new 0 0 59.43 68.75;" xml:space="preserve">
<style type="text/css">
	.st0{fill:#FF6600;}
</style>
<path class="st0" d="M59,61.35l-3.15-5.88c0.66-0.45,0.85-1.34,0.42-2.03c-0.39-0.62-1.17-0.86-1.82-0.59l-0.41-0.76
	c0.49-0.48,0.59-1.25,0.21-1.86c-0.38-0.61-1.14-0.85-1.79-0.61l-7.26-8.18c-0.6-0.67-1.22-1-1.79-1.11l-9.7-14.92L44.02,8.38
	c1.09-0.26,2.02-0.92,2.62-1.87c0.6-0.96,0.8-2.1,0.54-3.2s-0.92-2.05-1.88-2.65c-0.96-0.6-2.1-0.8-3.21-0.54
	c-1.11,0.25-2.05,0.92-2.65,1.88c-0.62,0.98-0.78,2.12-0.55,3.17l-9.19,14.12L20.53,5.16c0.23-1.05,0.07-2.19-0.55-3.17
	c-0.6-0.96-1.54-1.63-2.65-1.88c-1.11-0.25-2.24-0.06-3.21,0.54S12.5,2.2,12.25,3.3s-0.06,2.24,0.54,3.21
	c0.62,0.98,1.57,1.62,2.62,1.87l10.32,17.04l-9.7,14.92c-0.58,0.12-1.2,0.45-1.8,1.12l-7.21,8.1l-0.06,0.08
	c-0.65-0.23-1.39,0.01-1.77,0.61C4.8,50.84,4.91,51.62,5.4,52.1l-0.41,0.76c-0.66-0.26-1.44-0.03-1.83,0.59
	c-0.43,0.68-0.24,1.58,0.42,2.03l-3.15,5.87c-0.34,0.57-0.49,1.24-0.41,1.87c0.09,0.76,0.5,1.41,1.12,1.8l5.35,3.36
	c0.39,0.25,0.83,0.36,1.27,0.36c0.89,0,1.79-0.47,2.35-1.32l3.93-5.39c0.23,0.13,0.49,0.2,0.74,0.2c0.5,0,0.99-0.25,1.27-0.7
	c0.39-0.62,0.27-1.42-0.26-1.9l0.51-0.7c0.16,0.06,0.33,0.09,0.49,0.09c0.5,0,0.99-0.25,1.27-0.7c0.38-0.61,0.27-1.39-0.23-1.87
	l4.21-10.03c0.35-0.77,0.41-1.53,0.24-2.19L29.72,32l7.41,12.24c-0.18,0.65-0.12,1.4,0.22,2.15l4.18,10l0.04,0.08
	c-0.49,0.48-0.6,1.26-0.22,1.86c0.29,0.45,0.77,0.7,1.27,0.7c0.17,0,0.33-0.04,0.5-0.1l0.51,0.7c-0.53,0.48-0.65,1.28-0.26,1.9
	c0.29,0.45,0.77,0.7,1.27,0.7c0.25,0,0.51-0.07,0.74-0.21l3.93,5.39c0.55,0.85,1.46,1.32,2.35,1.32c0.44,0,0.88-0.12,1.27-0.36
	l5.35-3.36c0.62-0.39,1.03-1.05,1.12-1.8C59.49,62.59,59.34,61.93,59,61.35z M45.69,57.38l0.79-0.5l5.02-3.15l0.38,0.7l-5.72,3.59
	L45.69,57.38z M39.8,41.82l-0.46,0.29L18.61,7.87c0.01-0.01,0.03-0.01,0.04-0.02c0.01-0.01,0.02-0.02,0.03-0.03l21.83,33.56
	L39.8,41.82z M41.99,3.59c0.18-0.28,0.45-0.48,0.78-0.55C42.86,3.01,42.95,3,43.05,3c0.23,0,0.46,0.07,0.66,0.19
	c0.28,0.18,0.48,0.45,0.55,0.78s0.02,0.66-0.16,0.94v0c-0.18,0.28-0.45,0.48-0.78,0.55c-0.28,0.06-0.55,0.01-0.81-0.11l-0.24-0.15
	C41.79,4.82,41.65,4.13,41.99,3.59z M40.75,7.82c0.01,0.01,0.02,0.02,0.03,0.03c0.01,0.01,0.03,0.01,0.04,0.02l-8.94,14.76
	l-0.38-0.59L40.75,7.82z M15.17,3.97c0.07-0.32,0.27-0.6,0.55-0.78C15.93,3.07,16.15,3,16.39,3c0.09,0,0.19,0.01,0.28,0.03
	c0.33,0.07,0.6,0.27,0.78,0.55c0.34,0.54,0.2,1.23-0.29,1.62l-0.24,0.15c-0.25,0.12-0.53,0.17-0.81,0.11
	c-0.33-0.07-0.6-0.27-0.78-0.55v0C15.15,4.63,15.1,4.3,15.17,3.97z M13.74,57.38l-0.47,0.64l-5.72-3.59l0.38-0.7l4.11,2.58
	L13.74,57.38z M7.72,65.62l-4.62-2.9l3.02-5.64l5.37,3.37L7.72,65.62z M15.31,54.82l-5.65-3.55l-0.1-0.06l6.91-7.76
	c0.02-0.02,0.03-0.03,0.04-0.05l1.05,0.66l1.79,1.12c-0.01,0.02-0.01,0.03-0.02,0.05L15.31,54.82z M20.09,42.11l-1.16-0.73
	l8.53-13.11l0.51,0.84L20.09,42.11z M40.1,45.19C40.1,45.19,40.09,45.18,40.1,45.19l2.83-1.79c0.01,0.01,0.03,0.03,0.04,0.04
	l6.92,7.76l-0.94,0.59l-4.82,3.02L40.1,45.19z M51.71,65.62l-3.77-5.17l5.37-3.37l3.02,5.64L51.71,65.62z"/>
</svg>
