<?xml version="1.0" encoding="utf-8"?>
<!-- Generator: Adobe Illustrator 26.0.1, SVG Export Plug-In . SVG Version: 6.00 Build 0)  -->
<svg version="1.1" id="Слой_1" xmlns="http://www.w3.org/2000/svg" xmlns:xlink="http://www.w3.org/1999/xlink" x="0px" y="0px"
	 viewBox="0 0 79.29 67.92" style="enable-background:new 0 0 79.29 67.92;" xml:space="preserve">
<style type="text/css">
	.st0{fill:#FF6600;}
</style>
<g>
	<path class="st0" d="M27.08,30.25c3.13-0.5,5.36-3.33,4.97-6.3c-0.35-2.62-2.94-5.45-9.12-4.8c-9.46,0.98-14.62,0.24-14.67,0.23
		c-0.08-0.01-0.18-0.02-0.26-0.02c-1.11,0.03-1.61,0.62-1.8,0.98c-0.59,1.05,0.01,2.09,0.65,3.2c1.07,1.86,1.45,2.88,0.68,3.63
		c-0.05,0.05-0.1,0.1-0.14,0.16c-0.2,0.25-0.43,0.51-0.67,0.79c-1.31,1.48-3.3,3.71-2.92,7.93c0.37,4.1,2.22,5.39,3.57,6.33
		c0.98,0.69,1.32,0.92,1.25,2.2c-0.07,1.33,0.45,2.46,1.48,3.19c1,0.71,2.41,0.97,3.93,0.97c4.09,0,8.99-1.89,9.06-1.91
		c1.23-0.51,1.95-1.25,2.14-2.21c0.32-1.59-0.94-2.86-2.05-3.98c-0.27-0.27-0.53-0.53-0.75-0.79c-0.92-1.05-1.24-4.19-0.79-5.68
		C21.98,32.96,22.57,30.97,27.08,30.25z M20.15,41.81c0.26,0.3,0.57,0.61,0.88,0.93c0.34,0.34,0.85,0.86,1.1,1.22
		c-0.06,0.03-0.12,0.06-0.21,0.09c-2.96,1.22-8.63,2.31-10.11,1.27c-0.11-0.08-0.24-0.17-0.22-0.58c0.16-2.96-1.4-4.04-2.53-4.83
		c-1.1-0.77-2.05-1.43-2.29-4.13c-0.26-2.93,0.97-4.32,2.17-5.67c0.27-0.3,0.52-0.59,0.74-0.87c2.22-2.27,0.98-4.98,0.02-6.7
		c2.38,0.16,6.93,0.28,13.52-0.4c3.39-0.35,5.62,0.5,5.84,2.21c0.16,1.21-0.79,2.68-2.47,2.95c-5.64,0.9-7.16,3.68-7.86,6
		C18.11,35.39,18.35,39.75,20.15,41.81z"/>
	<path class="st0" d="M79.29,50.75l0-1.09c0-6.1-0.69-9.11-7.3-12.31c-0.12-0.06-0.25-0.1-0.37-0.16l-0.16-0.43
		c-1.3-3.64-1.84-5.15-4.65-9.44c-0.34-0.53-8.52-12.92-14.88-12.61c-1.12,0.05-2.25,0.14-3.38,0.36C47.44,11.09,42.74,0.85,23.68,0
		c-0.04,0-0.09,0-0.13,0C12.62,0.47,7.36,5.17,4.87,9.03c-3.28,5.08-3.19,10.82-2.41,12.76c0.31,0.78,0.66,1.51,0.97,2.16
		c0.36,0.77,0.85,1.79,0.9,2.23c-1.14,1.05-4.61,5.04-4.3,8.84C0,36.2-0.04,39.35,3.06,43.04c0.03,0.04,0.06,0.07,0.1,0.1
		c1.12,1.1,1.04,1.57,0.89,2.42c-0.08,0.45-0.17,0.97-0.1,1.57c0.3,2.7,1.79,4.95,4.43,6.68c1.95,1.28,6.1,1.9,10.74,1.9
		c4.33,0,9.07-0.55,12.81-1.62c0.02,0.59,0.04,1.15,0.08,1.65c0.34,4.96,4.21,4.94,6.99,4.94l0.5,0c0.82,0,1.85-0.04,2.97-0.09
		c2.14-0.09,6.59-0.28,7.46,0.26c1.49,0.91,2.87,0.97,3.88,1.02c0.34,0.01,0.67,0.03,0.82,0.06c0.07,0.03,0.23,0.18,0.36,0.28
		c0.54,0.46,1.45,1.27,3.05,1.18c0.59,0.62,1.21,1.16,1.84,1.65c0.03,0.02,0.05,0.05,0.08,0.07c2.4,1.85,5.06,2.81,7.76,2.81
		c2.07,0,4.15-0.56,6.12-1.7C79.34,63.04,79.31,56.23,79.29,50.75z M39.13,36.72c0.24-0.71,0.6-0.9,0.91-1
		c1.58-0.49,4.77,0.93,7.33,2.52c-0.62,0.26-1.22,0.54-1.78,0.83c-0.81,0.42-1.78,0.68-2.8,0.85c-1.03,0.12-2.12,0.14-3.12,0.16
		c-1.27-1.46-1.06-1.96-0.84-2.48C38.93,37.37,39.05,37.07,39.13,36.72L39.13,36.72z M52.07,17.7c0.03,0,0.07,0,0.1,0
		c2.94,0,8.55,5.8,12.12,11.26c2.13,3.26,2.82,4.68,3.7,7.04c-1.03-0.23-2.06-0.38-3.05-0.48c-0.05-0.02-0.1-0.04-0.15-0.06
		c-0.31-0.11-0.62-0.11-0.91-0.03c-3.7-0.22-6.75,0.25-7.23,0.34c-1.89,0.21-3.87,0.62-5.77,1.19c-1.32-0.96-7.69-5.36-11.72-4.11
		c-0.57,0.18-1.06,0.48-1.49,0.85c-0.52-0.41-0.81-0.91-0.9-1.57c-0.14-1.09,0.19-3.62,3.94-8.34
		C44.94,18.44,48.08,17.89,52.07,17.7z M10.02,51.3c-2.51-1.64-2.97-3.36-3.09-4.5C6.91,46.62,6.95,46.37,7,46.07
		c0.25-1.44,0.32-3-1.69-5.02C2.97,38.25,3,36.09,3.02,34.98c0-0.05,0-0.09,0-0.14c-0.19-2.33,2.35-5.59,3.39-6.5
		c1.72-1.5,0.71-3.63-0.27-5.68c-0.3-0.63-0.61-1.29-0.89-1.98c-0.35-0.87-0.71-5.6,2.14-10.02C10.44,5.92,15.9,3.35,23.61,3
		c17.61,0.81,21.33,9.85,22.09,12.9c-2.33,0.96-4.74,2.72-7.35,6.02c-3.38,4.26-4.91,7.82-4.56,10.58c0.19,1.47,0.91,2.72,2.1,3.62
		c0.11,0.08,0.18,0.15,0.24,0.2c-0.02,0.04-0.03,0.08-0.05,0.12c-0.42,0.99-0.73,2.15,0.08,3.77c-2.97,0.06-4.01,2.78-4.14,4.23
		c0,0.03,0,0.05,0,0.08c-0.01,0.2-0.12,3.29-0.12,6.47C24.41,53.41,12.65,53.03,10.02,51.3z M38.99,57.68
		c-3.25,0.02-3.85-0.14-3.99-2.14c-0.24-3.47-0.02-10.16,0-10.86c0.04-0.32,0.26-1.48,1.24-1.48c0.28,0,0.59,0,0.92,0.01
		c1.38,0.02,3.11,0.03,4.88-0.16V57.6c-0.95,0.04-1.84,0.07-2.54,0.07L38.99,57.68z M56.94,59.93c-0.38-0.33-0.85-0.73-1.55-0.91
		c-0.48-0.12-0.97-0.14-1.45-0.16c-0.83-0.04-1.61-0.07-2.43-0.57c-1.21-0.74-3.39-0.87-6.46-0.79V42.56
		c0.68-0.17,1.33-0.4,1.93-0.71c2.86-1.49,6.61-2.6,10.03-2.97c0.03,0,0.07-0.01,0.1-0.01c0.05-0.01,3.58-0.61,7.58-0.22
		c2.84,1.21,2.93,2.38,2.97,3.11c0.01,0.11,0.01,0.22,0.02,0.31c0.09,1.05-0.53,6.49-2.59,8.5c-1.78,1.74-3.06,2.01-4.14,1.84
		c-0.04-0.01-0.08-0.02-0.12-0.02c-0.29-0.06-0.57-0.14-0.85-0.24c-1.01-0.35-1.67-2.65-2.07-4.41c0.06-0.27,0.05-0.56-0.04-0.84
		c-0.05-0.14-0.13-0.27-0.21-0.39c-0.01-0.04-0.02-0.08-0.02-0.11c-0.38-1.9,1.42-3.17,1.52-3.23c0.68-0.46,0.87-1.39,0.41-2.07
		c-0.46-0.69-1.39-0.88-2.08-0.42c-0.13,0.09-3.06,2.08-2.89,5.45c-1.44-0.15-2.88-1.08-3.43-1.53c-0.63-0.53-1.58-0.45-2.11,0.18
		c-0.54,0.63-0.46,1.58,0.17,2.11c0.13,0.11,2.72,2.27,5.75,2.27c0.06,0,0.13-0.01,0.19-0.02c0.65,2.59,1.6,4.86,3.54,5.72
		c-0.32,1.27-0.63,3.19-0.37,5.46c-0.02,0-0.05,0-0.07,0.01C57.59,60.49,57.44,60.36,56.94,59.93z M72.34,63.62
		c-3.4,1.96-7.1,1.66-10.32-0.7c-1.2-3.19-0.74-6.06-0.36-7.49c1.91-0.05,3.71-0.93,5.53-2.71c3.08-3.01,3.6-9.73,3.48-10.94
		l-0.01-0.2c-0.03-0.51-0.11-1.06-0.31-1.63c0.03,0,0.06-0.01,0.09-0.01c0.08,0.04,0.16,0.06,0.24,0.1
		c5.34,2.58,5.61,4.49,5.61,9.61l0,1.11C76.31,55.71,76.34,61.31,72.34,63.62z"/>
</g>
</svg>
