<?xml version="1.0" encoding="utf-8"?>
<!-- Generator: Adobe Illustrator 26.0.1, SVG Export Plug-In . SVG Version: 6.00 Build 0)  -->
<svg version="1.1" id="Слой_1" xmlns="http://www.w3.org/2000/svg" xmlns:xlink="http://www.w3.org/1999/xlink" x="0px" y="0px"
	 viewBox="0 0 97.5 65.55" style="enable-background:new 0 0 97.5 65.55;" xml:space="preserve">
<style type="text/css">
	.st0{fill:#FF6600;}
</style>
<path class="st0" d="M43.44,52.59c1.07-0.9,1.82-1.93,2.07-3.08c0.1-0.39,0.12-0.92,0.12-0.93v-6.55h-0.02
	c0.01-0.1,0.02-0.19,0.02-0.29c0-5.2-9.24-8.23-18.83-8.74l-1.33,2.95c10.52,0.3,17.16,3.52,17.16,5.79c0,2.37-7.29,5.81-18.72,5.81
	c-11.43,0-18.72-3.44-18.72-5.81c0-1.49,2.9-3.41,7.89-4.63l0,0c-0.09,0.44-0.06,0.9,0.1,1.33c0.23,0.61,0.68,1.09,1.27,1.36
	l2.93,1.32c-0.09,0.22-0.15,0.46-0.15,0.73c0,2.48,4.18,2.85,6.67,2.85c2.49,0,6.67-0.37,6.67-2.85c0-2.42-3.98-2.83-6.48-2.85
	l4.77-10.56l38.76,17.51l-5.7,12.62c-0.27,0.59-0.29,1.25-0.06,1.86c0.23,0.61,0.68,1.09,1.27,1.36l5.49,2.48
	c0.32,0.15,0.66,0.22,1,0.22c0.29,0,0.58-0.05,0.86-0.16c0.61-0.23,1.09-0.68,1.36-1.27l1.37-3.02l4.97,2.24
	c0.32,0.15,0.66,0.21,1,0.21c0.93,0,1.81-0.53,2.22-1.43l1.44-3.18l4.97,2.24c0.32,0.15,0.66,0.22,1,0.22
	c0.29,0,0.58-0.05,0.86-0.16c0.61-0.23,1.09-0.68,1.36-1.27l6.28-13.9c0.55-1.22,0.01-2.66-1.21-3.21l-4.97-2.24l1.44-3.18
	c0.27-0.59,0.29-1.25,0.06-1.86c-0.23-0.61-0.68-1.09-1.27-1.36l-4.97-2.24l1.37-3.02c0.55-1.22,0.01-2.66-1.21-3.21l-5.49-2.48
	c-1.21-0.55-2.66-0.01-3.21,1.21l-5.7,12.62L33.35,18.53l5.7-12.62v0c0.55-1.22,0.01-2.66-1.21-3.21l-5.49-2.48
	c-0.59-0.27-1.25-0.29-1.86-0.06c-0.61,0.23-1.09,0.68-1.36,1.27l-1.37,3.02L22.8,2.21c-0.59-0.27-1.25-0.29-1.86-0.06
	c-0.61,0.23-1.09,0.68-1.36,1.27l-1.44,3.18l-4.97-2.24c-0.59-0.27-1.25-0.29-1.86-0.06c-0.61,0.23-1.09,0.68-1.36,1.27l-6.28,13.9
	c-0.55,1.22-0.01,2.66,1.21,3.21l4.97,2.24l-1.44,3.18c-0.27,0.59-0.29,1.25-0.06,1.86c0.23,0.61,0.68,1.09,1.27,1.36l4.97,2.24
	l-1.36,3.02l1.28-2.83C7.65,35.04,2.2,37.75,2.2,41.75c0,0.1,0.01,0.19,0.02,0.29H2.2v3.83C0.81,47.01,0,48.36,0,49.9
	c0,0.1,0.01,0.19,0.02,0.29H0v6.73c0,0.32,0.07,0.59,0.13,0.8c1.22,5.15,11.75,7.84,21.59,7.84c9.87,0,20.44-2.71,21.6-7.89
	c0.1-0.39,0.12-0.92,0.12-0.93V52.59 M40.42,56.9l-0.02,0.09c-0.49,2.27-7.42,5.56-18.67,5.56c-11.26,0-18.19-3.29-18.67-5.56
	l-0.02-2.44c4.04,2.72,11.52,4.16,18.69,4.16c7.2,0,14.69-1.45,18.72-4.19v2.15C40.44,56.73,40.43,56.82,40.42,56.9z M39.28,54.92
	 M23.92,50.56c7.19,0,14.69-1.44,18.72-4.18v2.14c0,0.06-0.01,0.15-0.03,0.23l-0.02,0.09c-0.49,2.27-7.42,5.56-18.67,5.56
	c-11.26,0-18.19-3.29-18.67-5.56L5.23,46.4C9.27,49.13,16.74,50.56,23.92,50.56z M6.66,20.19l5.81-12.86l4.45,2.01L11.11,22.2
	L6.66,20.19z M11.41,28.83l2.2-4.87c0,0,0,0,0-0.01l6.28-13.9v0l2.2-4.88l4.45,2.01L15.85,30.84L11.41,28.83z M20.7,39.26
	c-0.04,0.01-0.07,0.02-0.11,0.02l-4.36-1.97l3.11-6.89L29.51,7.9v0c0,0,0,0,0,0l2.13-4.71l4.45,2.01l-7.71,17.06l-2.24,4.96l0,0
	L20.7,39.26z M68.87,43.22L30.11,25.72l1-2.22l1-2.22l38.76,17.51l-0.08,0.18L68.87,43.22z M69.35,61.3L64.9,59.3l5.47-12.1l0,0
	l4.48-9.92h0l5.47-12.1l4.45,2.01l-2.13,4.71c0,0,0,0.01,0,0.01l-8.82,19.54L69.35,61.3z M78.89,59.31l-4.45-2.01l2.24-4.96
	l8.44-18.69l4.45,2.01l-2.2,4.87c0,0,0,0,0,0l-6.28,13.9c0,0,0,0,0,0L78.89,59.31z M88.51,57.16l-4.45-2.01l3.42-7.57l2.39-5.28
	l4.45,2.01L88.51,57.16z"/>
</svg>
