<?xml version="1.0" encoding="utf-8"?>
<!-- Generator: Adobe Illustrator 26.0.1, SVG Export Plug-In . SVG Version: 6.00 Build 0)  -->
<svg version="1.1" id="Слой_1" xmlns="http://www.w3.org/2000/svg" xmlns:xlink="http://www.w3.org/1999/xlink" x="0px" y="0px"
	 viewBox="0 0 55.32 55.33" style="enable-background:new 0 0 55.32 55.33;" xml:space="preserve">
<style type="text/css">
	.st0{fill:none;stroke:#1D1D1B;stroke-width:3;stroke-linecap:round;stroke-linejoin:round;stroke-miterlimit:10;}
	.st1{fill:#FF6600;}
</style>
<path class="st0" d="M17.92,72.67"/>
<path class="st1" d="M52.32,9.76c0.06,0.01,0.11,0.02,0.17,0.02c0.75,0.05,1.46-0.22,2-0.77C55,8.49,55.3,7.76,55.31,7.04
	c0-0.05,0.01-0.1,0.01-0.16V3.77c0-2.08-1.69-3.77-3.77-3.77H49.1c-0.07,0-0.14,0-0.21,0.01c-1.53,0.13-2.72,0.89-3.3,2.1
	l-1.66,3.06c-0.05,0.07-0.25,0.2-0.42,0.2l-2.85,0L41.12,3c0.01-0.06,0.02-0.11,0.02-0.17c0.05-0.75-0.22-1.46-0.77-2
	c-0.56-0.55-1.36-0.86-2.14-0.82H32.7c-0.07,0-0.14,0-0.2,0.01c-1.23,0.1-1.88,0.63-2.22,1.06c-0.43,0.55-0.59,1.27-0.44,2.01
	l0.46,2.29l-5.25,0L25.5,3c0.01-0.06,0.02-0.11,0.02-0.17c0.05-0.75-0.22-1.46-0.76-2c-0.57-0.56-1.4-0.86-2.19-0.82h-5.72
	c-0.07,0-0.14,0-0.2,0.01c-1.23,0.1-1.89,0.63-2.22,1.06c-0.43,0.55-0.59,1.27-0.44,2.01l0.46,2.29l-5.25,0L9.65,3
	c0.01-0.06,0.02-0.11,0.02-0.17c0.06-0.75-0.21-1.46-0.76-2c-0.57-0.56-1.4-0.88-2.19-0.83H3.77C1.69,0.01,0,1.7,0,3.77v3.12
	c0,0,0,0,0,0c0,0.04,0,0.09,0.01,0.13C0.11,8.54,0.93,9.8,2.2,10.4l3.06,1.27c0.07,0.05,0.2,0.25,0.2,0.42l0,3.23l-2.38-0.46
	c-0.06-0.01-0.11-0.02-0.17-0.02c-0.75-0.05-1.46,0.22-2,0.77c-0.56,0.57-0.87,1.4-0.82,2.19l0,5.58c0.08,1.31,0.62,1.99,1.07,2.33
	c0.55,0.43,1.27,0.59,2.01,0.44l2.29-0.46l0,5.25l-2.38-0.46c-0.06-0.01-0.11-0.02-0.17-0.02c-0.75-0.05-1.46,0.22-2,0.77
	c-0.56,0.57-0.87,1.4-0.82,2.19l0,5.81c0.08,1.31,0.62,1.99,1.07,2.33c0.55,0.43,1.27,0.59,2.01,0.44l2.29-0.46l0,5.25l-2.38-0.46
	c-0.05-0.01-0.1-0.02-0.15-0.02c-1.03-0.09-1.68,0.32-2.05,0.67C-0.01,47.82-0.01,49.02,0,49.2v2.36c0,2.08,1.69,3.77,3.77,3.77H5.9
	c0.11,0,0.21-0.01,0.32-0.03c1.48-0.15,2.63-0.9,3.2-2.09l2.71-3.06c0.05-0.07,0.25-0.2,0.42-0.2l1.79,0l-0.46,2.38
	c-0.01,0.06-0.02,0.11-0.02,0.17c-0.05,0.75,0.22,1.46,0.77,2c0.52,0.51,1.25,0.81,1.97,0.82c0.05,0.01,0.1,0.01,0.16,0.01h5.87
	c0.05,0,0.1,0,0.15-0.01c0.72-0.01,1.46-0.31,1.98-0.82c0.55-0.54,0.82-1.25,0.77-2c0-0.06-0.01-0.12-0.02-0.17l-0.46-2.38l5.25,0
	l-0.46,2.3c-0.14,0.74,0.01,1.45,0.44,2c0.32,0.42,0.95,0.92,2.1,1.05c0.11,0.02,0.22,0.04,0.33,0.04h5.55c0.05,0,0.1,0,0.15-0.01
	c0.72-0.01,1.46-0.31,1.98-0.82c0.55-0.54,0.82-1.25,0.77-2c0-0.06-0.01-0.12-0.02-0.17l-0.46-2.38l5.25,0l-0.46,2.3
	c-0.14,0.74,0.01,1.45,0.44,2c0.32,0.42,0.95,0.92,2.1,1.05c0.11,0.02,0.22,0.04,0.33,0.04h3.23c2.08,0,3.77-1.69,3.77-3.77v-2.35
	c0-0.11-0.01-0.22-0.04-0.33c-0.15-1.47-0.91-2.62-2.09-3.19l-3.06-1.66c-0.07-0.05-0.2-0.25-0.2-0.42l0-2.04l2.38,0.46
	c0.06,0.01,0.11,0.02,0.17,0.02c0.74,0.05,1.46-0.22,2-0.77c0.51-0.52,0.81-1.25,0.82-1.97c0-0.05,0.01-0.1,0.01-0.16v-5.89
	c0-0.11-0.01-0.22-0.04-0.32c-0.12-1.16-0.63-1.78-1.05-2.1c-0.55-0.43-1.26-0.59-2.01-0.44l-2.29,0.46l0-5.12l2.38,0.46
	c0.06,0.01,0.11,0.02,0.17,0.02c0.74,0.05,1.46-0.22,2-0.77c0.51-0.52,0.81-1.25,0.83-1.97c0-0.05,0.01-0.1,0.01-0.16v-5.66
	c0-0.11-0.01-0.22-0.04-0.32c-0.12-1.16-0.63-1.78-1.05-2.1c-0.55-0.43-1.26-0.58-2.01-0.44l-2.29,0.46l0-5.96L52.32,9.76z
	 M38.07,3.01l-0.51,2.64c-0.02,0.09-0.03,0.19-0.03,0.28v9.52h-4.1l0-9.52c0-0.02-0.01-0.04-0.01-0.07c0-0.08-0.01-0.15-0.02-0.23
	l0,0c0-0.01,0-0.01,0-0.02l-0.52-2.61H38.07z M46.93,31.07h-6.4v-5.53h6.4V31.07z M37.53,31.07h-4.09l0-5.53h4.1V31.07z M8.46,25.55
	h6.07l-0.01,5.53H8.46V25.55z M17.53,25.55h4.38v5.53h-4.39L17.53,25.55z M24.91,22.55v-4.1h5.52l0,4.1H24.91z M30.44,25.55l0,5.53
	h-5.53v-5.53H30.44z M21.91,22.55h-4.37l0.01-4.1h4.36V22.55z M21.91,34.07v4.34H17.5l0.01-4.34H21.91z M24.91,34.07h5.53l0,4.34
	h-5.53V34.07z M33.44,34.07h4.09v4.34h-4.09L33.44,34.07z M33.43,22.55l0-4.1h4.1v4.1H33.43z M30.43,8.38l0,7.06h-5.52V8.38H30.43z
	 M22.44,3l-0.51,2.65c-0.02,0.09-0.03,0.19-0.03,0.28v9.51h-4.36l0.02-9.51c0,0,0,0,0,0c0,0,0,0,0,0c0-0.08-0.01-0.15-0.02-0.23
	c0-0.03,0-0.05-0.01-0.08l-0.52-2.62L22.44,3z M3.59,7.74C3.55,7.72,3.52,7.7,3.49,7.69C3.33,7.62,3.05,7.4,3,6.83V3.77
	c0-0.42,0.34-0.77,0.77-0.77L6.59,3L6.08,5.65C6.07,5.74,6.06,5.84,6.06,5.93c0,1.38,1.22,2.45,2.77,2.45h5.74l-0.02,7.06h-6.1
	v-3.36c0-1.23-0.69-2.45-1.74-3.04L3.59,7.74z M3.08,23.11l-0.01-5.19l2.65,0.51c0.09,0.02,0.19,0.03,0.28,0.03
	c0.02,0,0.04-0.01,0.06-0.01h8.48l-0.01,4.1H6c-0.14,0-0.28,0.03-0.4,0.06L3.08,23.11z M3.08,38.96l-0.01-5.42l2.63,0.5c0,0,0,0,0,0
	l0.02,0c0.09,0.02,0.19,0.03,0.28,0.03h8.5l-0.01,4.34h-8.4c-0.03,0-0.06-0.01-0.09-0.01c-0.1,0-0.2,0.01-0.29,0.03L3.08,38.96z
	 M12.54,46.94c-1.23,0-2.45,0.69-3.04,1.74l-2.75,3.13c-0.02,0.03-0.03,0.06-0.05,0.09c-0.11,0.23-0.43,0.39-0.9,0.41
	c-0.04,0-0.07,0.01-0.11,0.01H3.77C3.35,52.33,3,51.98,3,51.56v-2.18l2.72,0.52c0.09,0.02,0.19,0.03,0.28,0.03
	c1.38,0,2.45-1.22,2.45-2.77v-5.74h6.03l-0.01,5.52H12.54z M22.44,52.33h-5.43c-0.02,0-0.05-0.01-0.07-0.01l0.51-2.64
	c0.02-0.08,0.02-0.16,0.02-0.25c0-0.01,0-0.02,0-0.03l0.02-7.98h4.42v7.97c0,0.09,0.01,0.19,0.03,0.28L22.44,52.33
	C22.44,52.33,22.44,52.33,22.44,52.33z M24.91,46.94v-5.52h5.53l0,5.52H24.91z M38.06,52.33H32.9c-0.01,0-0.02,0-0.02,0l0.53-2.64
	c0-0.02,0-0.04,0.01-0.06c0.03-0.11,0.04-0.22,0.04-0.34l0-7.87h4.09v7.97c0,0.09,0.01,0.19,0.03,0.28L38.06,52.33
	C38.07,52.33,38.07,52.33,38.06,52.33z M51.81,48.36c0.03,0.02,0.06,0.03,0.09,0.05c0.23,0.11,0.38,0.43,0.41,0.9
	c0,0.04,0.01,0.07,0.01,0.11v2.15c0,0.42-0.34,0.77-0.77,0.77h-3.03c-0.01,0-0.02,0-0.02,0l0.53-2.64c0.02-0.1,0.03-0.19,0.03-0.29
	c0-1.38-1.22-2.45-2.77-2.45h-5.75v-5.52h6.4v2.2c0,1.23,0.69,2.45,1.74,3.04L51.81,48.36z M52.32,33.46c0,0.01,0,0.02,0,0.03v5.43
	c0,0.02-0.01,0.05-0.01,0.07l-2.65-0.51c-0.06-0.01-0.13-0.01-0.2-0.02c-0.11-0.03-0.23-0.04-0.35-0.04h-8.59v-4.34h8.59
	c0.17,0,0.32-0.03,0.47-0.08c0.03,0,0.06,0,0.09-0.01L52.32,33.46z M52.32,17.85c0,0.01,0,0.02,0,0.03v5.2
	c0,0.02-0.01,0.05-0.01,0.07l-2.65-0.51c-0.03-0.01-0.06-0.01-0.1-0.01c-0.16-0.06-0.32-0.09-0.5-0.09h-8.54v-4.1h8.43
	c0.12,0,0.24-0.02,0.36-0.05c0.02,0,0.04,0.01,0.07,0.01c0.1,0,0.2-0.01,0.29-0.03L52.32,17.85z M49.67,6.19
	c-0.09-0.02-0.19-0.03-0.28-0.03c-1.38,0-2.45,1.22-2.45,2.77v6.51h-6.4V8.38h2.98c1.23,0,2.45-0.69,3.04-1.74l1.7-3.13
	c0.02-0.03,0.03-0.06,0.05-0.09c0.11-0.23,0.43-0.39,0.9-0.41c0,0,0.01,0,0.01,0h2.35c0.42,0,0.77,0.34,0.77,0.77v2.85
	c0,0.02-0.01,0.05-0.01,0.07L49.67,6.19z"/>
</svg>
