<?xml version="1.0" encoding="utf-8"?>
<!-- Generator: Adobe Illustrator 26.0.1, SVG Export Plug-In . SVG Version: 6.00 Build 0)  -->
<svg version="1.1" id="Слой_1" xmlns="http://www.w3.org/2000/svg" xmlns:xlink="http://www.w3.org/1999/xlink" x="0px" y="0px"
	 viewBox="0 0 47.62 68.33" style="enable-background:new 0 0 47.62 68.33;" xml:space="preserve">
<style type="text/css">
	.st0{fill:#FF6600;}
</style>
<g>
	<path class="st0" d="M26.86,45.8l-1.72-3.48c-0.25-0.51-0.77-0.84-1.34-0.84s-1.09,0.32-1.34,0.84l-1.72,3.48l-3.84,0.56
		c-0.56,0.08-1.03,0.48-1.21,1.02c-0.18,0.54-0.03,1.14,0.38,1.54l2.78,2.71l-0.66,3.83c-0.1,0.56,0.13,1.13,0.6,1.47
		c0.46,0.33,1.08,0.38,1.58,0.11l3.44-1.81l3.44,1.81c0.22,0.12,0.46,0.17,0.7,0.17c0.31,0,0.62-0.1,0.88-0.29
		c0.46-0.34,0.69-0.91,0.6-1.47l-0.66-3.83l2.78-2.71c0.41-0.4,0.56-1,0.38-1.54c-0.18-0.54-0.65-0.94-1.21-1.02L26.86,45.8z
		 M26.09,50.03c-0.35,0.34-0.51,0.84-0.43,1.33l0.28,1.61l-1.44-0.76c-0.44-0.23-0.96-0.23-1.4,0l-1.44,0.76l0.28-1.61
		c0.08-0.49-0.08-0.98-0.43-1.33l-1.17-1.14l1.62-0.23c0.49-0.07,0.91-0.38,1.13-0.82l0.72-1.46l0.72,1.46
		c0.22,0.44,0.64,0.75,1.13,0.82l1.61,0.23L26.09,50.03z"/>
	<path class="st0" d="M23.79,36.98c-7.08,0-12.84,5.76-12.84,12.84s5.76,12.84,12.84,12.84s12.84-5.76,12.84-12.84
		S30.87,36.98,23.79,36.98z M23.79,59.66c-5.42,0-9.84-4.41-9.84-9.84s4.41-9.84,9.84-9.84s9.84,4.41,9.84,9.84
		S29.22,59.66,23.79,59.66z"/>
	<path class="st0" d="M47.47,11.53l-5.29-10.7c-0.25-0.5-0.76-0.83-1.32-0.84c-0.01,0-0.02,0-0.02,0v0H6.79v0C6.78,0,6.77,0,6.76,0
		C6.2,0.01,5.69,0.33,5.44,0.84l-5.29,10.7c-0.22,0.44-0.21,0.95,0.03,1.38l12.16,22.4c-4.29,3.39-7.06,8.63-7.06,14.51
		c0,10.21,8.3,18.51,18.51,18.51c10.21,0,18.51-8.3,18.51-18.51c0-5.87-2.76-11.1-7.04-14.5l12.17-22.41
		C47.67,12.48,47.68,11.97,47.47,11.53z M41.95,7.15L28.47,31.94c-0.64-0.17-1.29-0.3-1.95-0.4L40.79,4.78L41.95,7.15z M34.23,10.7
		H13.39L9.28,3h29.05L34.23,10.7z M32.63,13.7l-8.82,16.55L14.99,13.7H32.63z M6.84,4.78L21.1,31.53c-0.63,0.09-1.25,0.22-1.86,0.37
		L5.72,7.05L6.84,4.78z M3.19,12.16l0.9-1.82l12.26,22.55c-0.51,0.23-1.02,0.47-1.51,0.74L3.19,12.16z M39.3,49.82
		c0,8.55-6.96,15.51-15.51,15.51c-8.55,0-15.51-6.96-15.51-15.51c0-5.38,2.76-10.13,6.93-12.91c2.64-1.58,5.05-2.21,6.56-2.45
		c0.1-0.01,0.2-0.03,0.3-0.05c0.06-0.01,0.11-0.02,0.16-0.02c0.51-0.05,1.03-0.08,1.55-0.08c0.49,0,0.97,0.03,1.45,0.07
		c1.33,0.16,3.75,0.65,6.49,2.14C36.26,39.24,39.3,44.17,39.3,49.82z M32.76,33.64c-0.46-0.26-0.94-0.49-1.42-0.71l12.24-22.5
		l0.85,1.72L32.76,33.64z"/>
</g>
</svg>
