<?xml version="1.0" encoding="utf-8"?>
<!-- Generator: Adobe Illustrator 26.0.1, SVG Export Plug-In . SVG Version: 6.00 Build 0)  -->
<svg version="1.1" id="Слой_1" xmlns="http://www.w3.org/2000/svg" xmlns:xlink="http://www.w3.org/1999/xlink" x="0px" y="0px"
	 viewBox="0 0 84.84 76.22" style="enable-background:new 0 0 84.84 76.22;" xml:space="preserve">
<style type="text/css">
	.st0{fill:#FF6600;}
</style>
<g>
	<path class="st0" d="M16.81,7.66H36.7c0.83,0,1.5-0.67,1.5-1.5s-0.67-1.5-1.5-1.5H16.81c-0.83,0-1.5,0.67-1.5,1.5
		S15.98,7.66,16.81,7.66z"/>
	<path class="st0" d="M7.85,6.28L1,8.71c-0.78,0.28-1.19,1.13-0.91,1.92c0.22,0.62,0.8,1,1.41,1c0.17,0,0.34-0.03,0.5-0.09L8.86,9.1
		c0.78-0.28,1.19-1.13,0.91-1.92C9.49,6.41,8.63,6,7.85,6.28z"/>
	<path class="st0" d="M44.48,9.1l6.85,2.43c0.17,0.06,0.34,0.09,0.5,0.09c0.62,0,1.2-0.38,1.41-1c0.28-0.78-0.13-1.64-0.91-1.92
		l-6.85-2.43C44.7,6,43.85,6.41,43.57,7.19C43.29,7.97,43.7,8.83,44.48,9.1z"/>
	<path class="st0" d="M84.84,54.25c0-5.88-17.3-7.45-27.52-7.45c-4.29,0-9.84,0.28-14.82,1.04V8.18c0.44-0.26,0.73-0.74,0.73-1.28
		V5.43c0-0.55-0.3-1.02-0.73-1.28V1.5c0-0.83-0.67-1.5-1.5-1.5s-1.5,0.67-1.5,1.5v2.65c-0.44,0.26-0.73,0.74-0.73,1.28V6.9
		c0,0.55,0.3,1.02,0.73,1.28v4.73H14.02V8.18c0.44-0.26,0.73-0.74,0.73-1.28V5.43c0-0.55-0.3-1.02-0.73-1.28V1.5
		c0-0.83-0.67-1.5-1.5-1.5s-1.5,0.67-1.5,1.5v2.65c-0.44,0.26-0.73,0.74-0.73,1.28V6.9c0,0.55,0.3,1.02,0.73,1.28v6.18
		c0,0.02-0.01,0.04-0.01,0.06s0.01,0.04,0.01,0.06v6.28c0,0.02-0.01,0.04-0.01,0.06s0.01,0.04,0.01,0.06v6.27
		c0,0.02-0.01,0.04-0.01,0.06s0.01,0.04,0.01,0.06v6.28c0,0.02-0.01,0.04-0.01,0.06s0.01,0.04,0.01,0.06v6.28
		c0,0.02-0.01,0.04-0.01,0.06s0.01,0.04,0.01,0.06v6.28c0,0.02-0.01,0.04-0.01,0.06s0.01,0.04,0.01,0.06v6.27
		c0,0.02-0.01,0.04-0.01,0.06s0.01,0.04,0.01,0.06v6.28c0,0.02-0.01,0.04-0.01,0.06s0.01,0.04,0.01,0.06v6.28
		c0,0.02-0.01,0.04-0.01,0.06s0.01,0.04,0.01,0.06v4.23c0,0.83,0.67,1.5,1.5,1.5s1.5-0.67,1.5-1.5v-2.79h17.2v2.79
		c0,0.83,0.67,1.5,1.5,1.5c0.83,0,1.5-0.67,1.5-1.5v-2.79h5.26v2.79c0,0.83,0.67,1.5,1.5,1.5s1.5-0.67,1.5-1.5v-9.17
		c4.44,0.67,9.31,0.97,13.36,1.03c-0.02,0.09-0.03,0.18-0.03,0.27v12.77c0,0.83,0.67,1.5,1.5,1.5s1.5-0.67,1.5-1.5V61.96
		c0-0.09-0.01-0.18-0.03-0.27c6.89-0.1,16.18-0.88,21.6-3.06v11.21c0,0.83,0.67,1.5,1.5,1.5s1.5-0.67,1.5-1.5V57.07
		c0-0.05-0.01-0.09-0.01-0.13C84.31,56.16,84.84,55.27,84.84,54.25z M81.84,54.25c-0.46,1.56-9.22,4.45-24.52,4.45
		c-15.36,0-24.13-2.91-24.52-4.43c0.39-1.56,9.16-4.47,24.52-4.47C72.62,49.79,81.38,52.68,81.84,54.25z M39.49,32.09H14.02V28.7
		h25.47V32.09z M39.49,35.09v3.39H14.02v-3.39H39.49z M39.49,41.48v3.39H14.02v-3.39H39.49z M39.49,25.7H14.02V22.3h25.47V25.7z
		 M14.02,54.26H29.8c0.01,1.02,0.53,1.9,1.45,2.67c0,0.04-0.01,0.09-0.01,0.13v0.59h-17.2V54.26z M31.58,51.29
		c-0.09-0.02-0.19-0.03-0.28-0.03H14.02v-3.39h25.47v0.49C36.16,49.05,33.31,50,31.58,51.29z M39.49,15.91v3.39H14.02v-3.39H39.49z
		 M14.02,64.04v-3.39h17.2v3.39H14.02z M34.23,64.04v-3.39h5.26v3.39H34.23z"/>
	<path class="st0" d="M57.32,57.26c17.82,0,17.82-2.25,17.82-3.22s0-3.22-17.82-3.22s-17.82,2.25-17.82,3.22
		S39.49,57.26,57.32,57.26z M57.32,53.62c4.36,0,7.84,0.18,10.37,0.43c-2.53,0.24-6,0.42-10.37,0.42s-7.84-0.18-10.37-0.42
		C49.48,53.8,52.95,53.62,57.32,53.62z"/>
</g>
</svg>
