<?xml version="1.0" encoding="utf-8"?>
<!-- Generator: Adobe Illustrator 26.0.1, SVG Export Plug-In . SVG Version: 6.00 Build 0)  -->
<svg version="1.1" id="Слой_1" xmlns="http://www.w3.org/2000/svg" xmlns:xlink="http://www.w3.org/1999/xlink" x="0px" y="0px"
	 viewBox="0 0 100.55 69.02" style="enable-background:new 0 0 100.55 69.02;" xml:space="preserve">
<style type="text/css">
	.st0{fill:#FF6600;}
</style>
<path class="st0" d="M70.42,9.25c-8.15,0-15.53,3.29-20.92,8.6c-0.02-1.54-0.72-3.17-1.9-4.38c-0.95-0.97-2.63-2.12-5.29-2.28
	c-0.12-0.09-0.24-0.19-0.37-0.28c-2.61-1.8-6.64-3.27-9.49-3.8c-0.56-0.8-1.05-1.67-1.07-1.99c0-1.08,0.01-3.08-1.18-4.27
	C29.64,0.29,28.91,0,28.08,0c-1.33,0-2.48,0.73-3,1.88c-0.32,0.72-0.57,2.02,0.3,3.88L25.1,6.59c-0.74,2.13-2.11,5.52-2.82,6.36
	c-0.8,0.95-2.08,1.78-3.2,2.52c-0.42,0.27-0.82,0.53-1.18,0.79c-0.17-0.32-0.39-0.66-0.7-0.97c-1.25-1.22-2.28-0.95-3.13-0.53
	c-0.1,0.05-0.2,0.1-0.33,0.15c-0.55,0.21-1.85,0.72-1.15,5.6l-0.05,8.81c-0.13,0-0.22,0-0.24-0.01c-0.77-0.11-1.48,0.42-1.6,1.19
	c-0.12,0.77,0.41,1.5,1.19,1.62c0.01,0,0.03,0,0.03,0c-0.13,0.45-0.26,0.93-0.4,1.43c-0.19,0-0.31,0-0.33-0.01
	c-0.77-0.11-1.48,0.42-1.6,1.19c-0.11,0.75,0.38,1.45,1.11,1.6c-0.14,0.46-0.28,0.91-0.41,1.35c-0.76-0.09-1.46,0.43-1.57,1.19
	c-0.09,0.6,0.21,1.17,0.72,1.45c-0.19,0.55-0.39,1.06-0.61,1.56c-0.69,0-1.29,0.5-1.4,1.2c-0.05,0.33,0.02,0.65,0.18,0.92
	c-0.83,1.18-2.02,2.56-3.92,4.55c-4.04,4.22-3.94,7.55-3.44,9.27c-0.03,0.11-0.05,0.22-0.06,0.34c-0.04,1.24,1.23,3.19,4.12,4.52
	c0.44,0.2,1.68,0.77,5.48-0.53l0,0c0.37-0.14,1.3-0.37,1.82,0.55c0.67,1.32,1.8,2.1,3.1,2.14c0.44,0.01,0.88-0.07,1.28-0.22
	c0.68-0.26,1.27-0.75,1.64-1.38c0.56-0.97,0.52-2.15-0.1-3.17c-0.49-0.79-0.53-0.92,0.13-1.59l-0.02-0.02
	c0.96-0.55,1.93-1.15,2.9-1.77l0.04,0.07c0.34-0.2,1.21-0.59,1.89,0.23c0.89,1.19,2.13,1.76,3.42,1.58c0.24-0.04,0.48-0.1,0.71-0.19
	c0.87-0.34,1.57-1.03,1.89-1.89c0.38-1.05,0.14-2.21-0.64-3.1c-0.77-0.87-0.83-1.33-0.67-1.7c0.91-0.81,1.76-1.64,2.54-2.49
	l0.04,0.04c0.28-0.28,1.03-0.87,1.89-0.25c1.09,0.88,2.44,1.12,3.63,0.66c0.05-0.02,0.09-0.04,0.13-0.06c1.15-0.5,1.92-1.57,2-2.78
	c0.09-1.31-0.62-2.54-1.91-3.34c-1.16-0.78-1.18-1.24-1.01-1.73c1.16-2.02,2.72-4.26,4.4-6.54l0.09,0.09
	c0.17-0.17,0.95-0.87,1.91-0.65c-0.22,1.46-0.34,2.95-0.34,4.46c0,16.48,13.41,29.88,29.88,29.88c16.48,0,29.89-13.41,29.89-29.88
	S86.9,9.25,70.42,9.25z M47.5,53.17c-1.85-3.01-3.13-6.41-3.67-10.05l2.74,1.34l8.54-7.06l5.26,1.34l2.16,8.51l-2.17,3.23l-11.7,0.7
	L47.5,53.17z M45.26,35.56c0.64-0.25,1.19-0.67,1.58-1.21c1.16-1.57,0.85-3.65-0.73-4.83c-0.1-0.07-0.33-0.26-0.58-0.51
	c0.2-0.49,0.42-0.97,0.65-1.44l2.64-0.09l3.93,7.98l-6.59,5.45l-2.61-1.28c0-0.17-0.01-0.33-0.01-0.5c0-1.14,0.09-2.25,0.23-3.35
	C44.29,35.82,44.8,35.74,45.26,35.56z M61,35.78l-5.43-1.36l-4-8.12c0.71-0.36,1.28-0.93,1.61-1.62c0.85-1.76,0.15-3.74-1.61-4.61
	c-0.01-0.01-0.03-0.02-0.04-0.02c2.52-2.5,5.54-4.49,8.89-5.84l-0.76,2.98l8.7,6.93v5.82L61,35.78z M50.32,22.62
	c0.49,0.24,0.4,0.62,0.3,0.83c-0.22,0.45-0.72,0.53-1.44,0.19c-0.19-0.08-0.38-0.14-0.57-0.2c0.31-0.42,0.63-0.83,0.96-1.23
	C49.83,22.36,50.08,22.5,50.32,22.62z M65.34,46.15l-2.1-8.31l6.69-5.33l6.99,5.57l-2.39,8.07H65.34z M79.3,50.37l-2.01-2.97
	l2.59-8.73l3.62-1.22l9.16,5.81l4.51-1.56c-0.42,4.43-1.92,8.55-4.24,12.1l-2.34-2.91L79.3,50.37z M85.49,35.15l3.45-10.52
	l3.59-0.77c2.9,4.17,4.64,9.2,4.77,14.63l-4.24,1.46L85.49,35.15z M90.45,21.23l-3.83,0.82L82.51,34.6l-3.62,1.21l-7.28-5.8v-5.82
	l8.7-6.93l-0.88-3.46C83.7,15.33,87.48,17.91,90.45,21.23z M76.09,12.86l0.83,3.27l-6.88,5.48l-6.99-5.57l0.75-2.95
	c2.12-0.54,4.34-0.83,6.62-0.83C72.36,12.25,74.26,12.46,76.09,12.86z M46.66,17.93c-0.02,2.23-3.99,7.5-7.49,12.15
	c-3.12,4.14-6.34,8.42-8.09,12.01l-0.05,0.12c-0.41,1.1-1.08,2.23-1.95,3.37l0.85-4.77c1.7-3.15,4.5-6.95,7.22-10.65
	c4.36-5.9,8.12-11,8.14-14.19c0-0.29-0.04-0.58-0.09-0.86c0.12,0.1,0.24,0.21,0.35,0.32C46.38,16.29,46.67,17.28,46.66,17.93z
	 M25.01,49.8c-0.03,0.04-0.05,0.08-0.08,0.12c-0.5,0.43-1.01,0.86-1.54,1.29l0.17-1.56c0.86-0.84,1.65-1.71,2.39-2.59l-0.41,2.33
	c-0.16,0.15-0.32,0.29-0.49,0.44L25.01,49.8z M34.82,28.36c-1.2,1.62-2.41,3.26-3.54,4.87l0.78-4.4l3-0.79
	C34.97,28.14,34.9,28.25,34.82,28.36z M20.84,48.28c-1.63,1.52-3.46,2.94-5.41,4.17l6.25-11.9L20.84,48.28z M13.23,53.71
	c-1.8,0.92-3.7,1.67-5.68,2.2c1.77-0.87,3.69-2.19,5.54-4.2l0.18,1.98C13.25,53.7,13.24,53.71,13.23,53.71z M27.68,3.04
	c0.03-0.07,0.08-0.12,0.17-0.15c0.08-0.03,0.18-0.04,0.33-0.04c0.11,0.08,0.36,0.47,0.35,2.28c0,0.15,0.01,0.3,0.04,0.46
	C27.61,4.22,27.55,3.35,27.68,3.04z M15.25,17.38c0.1,0.13,0.21,0.36,0.31,0.57c0.25,0.54,0.64,1.36,1.59,1.57
	c0.64,0.14,1.3-0.06,1.95-0.61c0.37-0.31,0.93-0.67,1.53-1.06c1.22-0.8,2.75-1.8,3.82-3.06c0.97-1.15,2.16-4.09,2.84-5.91L28,9.13
	c-0.07,0.27-0.14,0.55-0.21,0.84c-0.57,2.39-1.52,6.38-7.16,9.23c-2.03,0.88-3.85,3.02-5.22,5.05l0.02-3.83l-0.01-0.22
	C15.26,19.17,15.2,17.98,15.25,17.38z M5.74,50.54c2.51-2.63,3.92-4.35,4.85-5.88c0.79-0.12,1.78-0.35,2.98-0.81
	c0.73-0.28,1.53-0.65,2.4-1.13c0.69-0.38,0.94-1.24,0.56-1.93c-0.38-0.69-1.24-0.94-1.93-0.56c-0.95,0.52-1.78,0.87-2.51,1.12
	c0.11-0.32,0.22-0.65,0.33-1c0.69-0.14,1.5-0.35,2.43-0.71c0.73-0.28,1.53-0.65,2.4-1.12c0.69-0.38,0.94-1.24,0.56-1.93
	c-0.38-0.69-1.25-0.94-1.93-0.56c-0.93,0.51-1.75,0.86-2.46,1.11c0.1-0.34,0.2-0.68,0.3-1.02c0.59-0.14,1.25-0.34,1.99-0.62
	c0.73-0.28,1.53-0.65,2.4-1.13c0.69-0.38,0.94-1.24,0.56-1.93c-0.38-0.69-1.24-0.94-1.93-0.56c-0.77,0.42-1.47,0.73-2.09,0.97
	c0.1-0.35,0.19-0.69,0.28-1c0.56-0.14,1.19-0.33,1.89-0.6c0.73-0.28,1.53-0.65,2.4-1.13c0.69-0.38,0.94-1.24,0.56-1.93
	c-0.38-0.69-1.24-0.94-1.93-0.56c-0.61,0.33-1.15,0.58-1.67,0.8c1.25-2.29,3.47-5.71,5.64-6.66c6.88-3.48,8.07-8.46,8.71-11.14
	c0.07-0.31,0.16-0.66,0.23-0.91c1.42,0.11,5.49,1.14,8.51,2.87l1.6,1.14c0.25,0.17,0.46,0.35,0.65,0.52
	c0.02,0.02,0.03,0.03,0.05,0.05c0.11,0.1,0.19,0.2,0.27,0.3c0.11,0.13,0.2,0.27,0.29,0.41c0.04,0.07,0.09,0.14,0.12,0.21
	c0.02,0.04,0.04,0.07,0.05,0.11c0.06,0.17,0.09,0.33,0.09,0.5c-0.01,1.65-2.16,5-4.7,8.56l-8.13,2.15l-2.31,13.01
	c-0.15,0.28-0.3,0.56-0.43,0.83c-0.71,1.45-1.64,2.93-2.75,4.37L26.12,26L15.32,46.54L15,44.25l-2.07,3.08
	c-3.36,5-7.35,6.62-9.81,7.15C3.49,53.42,4.25,52.1,5.74,50.54z M5.49,60.14c-0.4-0.19-0.73-0.38-1.02-0.57
	c2.17-0.27,4.35-0.84,6.47-1.66c3.37-1.31,6.6-3.23,9.45-5.48l-0.12,1.06c-2.8,1.91-5.79,3.6-8.57,4.86
	C7.62,60.2,5.83,60.27,5.49,60.14z M15.1,61.6c0.11,0.17,0.07,0.23,0.06,0.26c-0.05,0.09-0.21,0.19-0.37,0.18
	c-0.31-0.01-0.54-0.37-0.68-0.64c-0.17-0.3-0.35-0.55-0.55-0.78c0.29-0.14,0.59-0.28,0.89-0.42C14.59,60.71,14.84,61.18,15.1,61.6z
	 M25.71,55.31c0.14,0.15,0.11,0.22,0.1,0.24c-0.04,0.1-0.18,0.22-0.34,0.24c-0.31,0.04-0.59-0.27-0.78-0.52
	c-0.28-0.34-0.58-0.61-0.89-0.83c0.29-0.22,0.58-0.44,0.87-0.66C24.91,54.27,25.24,54.78,25.71,55.31z M34.57,46.65
	c-0.01,0.15-0.13,0.31-0.3,0.38c-0.26,0.14-0.63-0.04-0.9-0.26c-0.4-0.29-0.8-0.49-1.19-0.63c0.25-0.38,0.47-0.76,0.68-1.14
	c0.3,0.3,0.66,0.6,1.1,0.9C34.35,46.14,34.58,46.43,34.57,46.65z M41.45,31.79c0.44-0.58,0.87-1.15,1.29-1.72
	c0.42,0.61,0.97,1.2,1.67,1.72c0.46,0.34,0.25,0.72,0.15,0.87c-0.3,0.4-0.8,0.39-1.45-0.08c-0.58-0.38-1.16-0.6-1.72-0.71
	C41.4,31.85,41.43,31.82,41.45,31.79z M49.4,55.88l1.04-1.81l9.61-0.57l2.61,8.66l-1.57,2.2C56.46,62.63,52.43,59.67,49.4,55.88z
	 M64.12,65.27l1.84-2.57l-3.15-10.43l2.12-3.12h9.91l2.12,3.14L73.83,62.7l1.99,2.78c-1.74,0.36-3.55,0.54-5.4,0.54
	C68.25,66.02,66.14,65.76,64.12,65.27z M78.91,64.64l-1.78-2.49l2.64-8.76l9.34,0.43l1.99,2.47C87.93,60.11,83.72,63.04,78.91,64.64
	z"/>
</svg>
