<?xml version="1.0" encoding="utf-8"?>
<!-- Generator: Adobe Illustrator 26.0.1, SVG Export Plug-In . SVG Version: 6.00 Build 0)  -->
<svg version="1.1" id="Слой_1" xmlns="http://www.w3.org/2000/svg" xmlns:xlink="http://www.w3.org/1999/xlink" x="0px" y="0px"
	 viewBox="0 0 75.88 65.11" style="enable-background:new 0 0 75.88 65.11;" xml:space="preserve">
<style type="text/css">
	.st0{fill:#FF6600;}
</style>
<path class="st0" d="M73.02,32.73c0.35-1.29,0.55-2.62,0.55-3.99c0-12.59-15.65-22.45-35.62-22.45c-3.13,0-6.16,0.24-9.04,0.7V4.94
	c0-3.24-2.51-4.94-5-4.94c-2.5,0-5.03,1.7-5.03,4.94v1.58c0,0.83,0.67,1.5,1.5,1.5s1.5-0.67,1.5-1.5V4.94C21.88,3.05,23.7,3,23.91,3
	c0.33,0,2,0.09,2,1.94v2.25l-9.95,2.86V8.67c0-3.24-2.51-4.94-5-4.94c-2.5,0-5.03,1.7-5.03,4.94v1.58c0,0.83,0.67,1.5,1.5,1.5
	s1.5-0.67,1.5-1.5V8.67c0-1.88,1.82-1.94,2.03-1.94c0.33,0,2,0.09,2,1.94v3.94c-6.6,4.05-10.64,9.74-10.64,16.14
	c0,1.36,0.19,2.69,0.55,3.98C0.97,35.57,0,38.62,0,41.79c0,13.07,16.67,23.32,37.94,23.32s37.94-10.24,37.94-23.32
	C75.88,38.62,74.91,35.58,73.02,32.73z M66.31,28.41c0,3.43-2.26,6.63-5.99,9.21c-0.04,0-0.07-0.01-0.11-0.01
	c-0.82,0-2.47-0.74-3.59-1.61c-1.37-1.06-2.79-2.17-4.44-2.17c-1.65,0-3.06,1.09-4.43,2.15c-1.07,0.83-2.09,1.62-2.86,1.62
	c-0.77,0-1.78-0.78-2.85-1.61c-1.37-1.06-2.79-2.16-4.44-2.16s-3.06,1.09-4.43,2.16c-1.07,0.83-2.09,1.62-2.86,1.62
	c-0.78,0-1.78-0.78-2.86-1.61c-1.43-1.11-2.79-2.16-4.44-2.16c-1.66,0-3.07,1.1-4.43,2.16c-1.07,0.83-2.09,1.62-2.86,1.62
	c-0.05,0-0.09,0.01-0.14,0.01c-3.74-2.58-6-5.78-6-9.21c0-2.54,1.24-4.95,3.39-7.08v13.39c0,0.83,0.67,1.5,1.5,1.5s1.5-0.67,1.5-1.5
	v-2.23l9.95-2.86v1.35c0,0.83,0.67,1.5,1.5,1.5c0.64,0,1.18-0.4,1.39-0.96c0.47,0.16,0.97,0.27,1.5,0.27c1.8,0,3.27-1.14,4.71-2.25
	c0.92-0.71,1.96-1.52,2.58-1.52c0.63,0,1.67,0.81,2.6,1.53c1.42,1.1,2.89,2.24,4.69,2.24c1.8,0,3.28-1.15,4.71-2.26
	c0.92-0.71,1.96-1.52,2.58-1.52c0.62,0,1.67,0.82,2.6,1.54c1.42,1.1,2.89,2.24,4.69,2.24c1.8,0,3.27-1.14,4.71-2.26
	c0.72-0.56,1.52-1.17,2.13-1.41C66.3,28.22,66.31,28.32,66.31,28.41z M56.82,39.64c-5.06,2.45-11.71,3.97-18.88,3.97
	c-7.28,0-14.03-1.56-19.12-4.08c0.55-0.36,1.07-0.76,1.59-1.17c0.92-0.71,1.96-1.52,2.58-1.52c0.62,0,1.58,0.74,2.6,1.53
	c1.42,1.1,2.89,2.24,4.69,2.24c1.8,0,3.27-1.14,4.71-2.25c0.92-0.71,1.96-1.52,2.58-1.52c0.63,0,1.67,0.81,2.6,1.53
	c1.42,1.1,2.89,2.24,4.69,2.24c1.8,0,3.28-1.14,4.71-2.26c0.92-0.71,1.96-1.52,2.58-1.52c0.62,0,1.67,0.82,2.6,1.54
	C55.34,38.81,56.06,39.26,56.82,39.64z M15.96,27.64l9.95-2.86v1.73l-9.95,2.86V27.64z M25.91,21.66l-9.95,2.86v-1.69l9.95-2.86
	V21.66z M62.32,27.18c-1.07,0.83-2.09,1.62-2.86,1.62c-0.77,0-1.78-0.78-2.85-1.61c-1.37-1.06-2.79-2.17-4.44-2.17
	c-1.65,0-3.06,1.09-4.42,2.15c-1.07,0.83-2.09,1.62-2.87,1.62c-0.77,0-1.78-0.78-2.85-1.61c-1.37-1.06-2.79-2.16-4.44-2.16
	c-1.65,0-3.06,1.09-4.43,2.16c-1.07,0.83-2.09,1.62-2.86,1.62c-0.42,0-0.91-0.24-1.39-0.55v-5.82c0.44,0.14,0.9,0.23,1.39,0.23
	c1.8,0,3.27-1.14,4.71-2.25c0.92-0.71,1.96-1.52,2.58-1.52c0.63,0,1.67,0.81,2.6,1.53c1.42,1.1,2.89,2.24,4.69,2.24
	c1.8,0,3.28-1.15,4.71-2.26c0.92-0.71,1.96-1.52,2.58-1.52c0.62,0,1.67,0.82,2.6,1.54c1.42,1.1,2.89,2.24,4.69,2.24
	c1.31,0,2.47-0.63,3.47-1.33c1.21,1.2,2.13,2.49,2.7,3.85C64.44,25.53,63.37,26.36,62.32,27.18z M59.46,19.67
	c-0.77,0-1.78-0.78-2.85-1.61c-1.37-1.06-2.79-2.17-4.44-2.17c-1.65,0-3.06,1.09-4.42,2.15c-1.07,0.83-2.09,1.62-2.87,1.62
	c-0.77,0-1.78-0.78-2.85-1.61c-1.37-1.06-2.79-2.16-4.44-2.16s-3.06,1.09-4.43,2.16c-1.07,0.83-2.09,1.62-2.86,1.62
	c-0.42,0-0.91-0.24-1.39-0.55v-5.08c2.85-0.53,5.89-0.83,9.04-0.83c9.08,0,17.33,2.43,22.56,6.11
	C60.12,19.54,59.77,19.67,59.46,19.67z M25.91,16.85l-9.95,2.86v-0.77c2.69-1.77,6.09-3.23,9.95-4.23V16.85z M15.96,15.32v-1.06
	c2.88-1.55,6.24-2.78,9.95-3.64v0.94C22.16,12.44,18.79,13.72,15.96,15.32z M12.96,16.11v1.17c-4.02,3.06-6.39,6.9-6.39,11.13
	c0,10.2,13.78,18.2,31.37,18.2c17.59,0,31.37-7.99,31.37-18.2s-13.78-18.2-31.37-18.2c-3.15,0-6.18,0.26-9.04,0.74v-0.93
	c2.86-0.47,5.89-0.73,9.04-0.73c18.29,0,32.62,8.54,32.62,19.45c0,1.19-0.18,2.34-0.5,3.46c-0.05,0.09-0.1,0.18-0.13,0.28
	C67.35,40.55,57,46.49,43.83,47.88c-0.08,0.01-0.15,0.02-0.23,0.02c-0.39,0.04-0.78,0.07-1.17,0.1c-0.13,0.01-0.27,0.02-0.4,0.03
	c-0.35,0.03-0.7,0.05-1.06,0.07c-0.2,0.01-0.4,0.02-0.61,0.03c-0.3,0.01-0.6,0.03-0.91,0.03c-0.4,0.01-0.8,0.02-1.2,0.02
	c-0.12,0-0.23,0-0.35,0c-0.55,0-1.11-0.01-1.65-0.02c-0.05,0-0.09,0-0.14-0.01c-0.51-0.02-1.01-0.04-1.52-0.07
	c-0.05,0-0.1-0.01-0.15-0.01c-0.51-0.03-1.02-0.07-1.52-0.11c-0.02,0-0.05,0-0.07-0.01c-15.8-1.41-27.55-9.35-27.55-19.23
	C5.32,23.87,8.18,19.48,12.96,16.11z M37.94,62.11C18.35,62.11,3,53.18,3,41.79c0-1.87,0.42-3.71,1.26-5.47
	c3.48,6.35,11.24,11.2,21.04,13.47c0.18,0.04,0.35,0.08,0.53,0.12c0.47,0.1,0.93,0.2,1.41,0.29c0.59,0.11,1.18,0.21,1.78,0.31
	c0.36,0.06,0.72,0.1,1.08,0.15c0.48,0.07,0.97,0.12,1.45,0.18c0.28,0.03,0.56,0.07,0.85,0.09c0.74,0.07,1.5,0.12,2.26,0.16
	c0.25,0.01,0.5,0.02,0.76,0.04c0.79,0.03,1.58,0.06,2.39,0.06c0.03,0,0.06,0,0.09,0c0.01,0,0.01,0,0.02,0c0.01,0,0.02,0,0.03,0
	c0.89,0,1.77-0.03,2.64-0.06c0.13-0.01,0.26-0.01,0.39-0.02c1.85-0.09,3.65-0.27,5.4-0.53c0.01,0,0.02,0,0.03,0
	c2.71-0.4,5.29-0.99,7.71-1.75c0.03-0.01,0.05-0.02,0.08-0.03c1.56-0.49,3.05-1.05,4.46-1.68c0.08-0.04,0.17-0.07,0.25-0.11
	c0.68-0.31,1.34-0.63,1.99-0.96c0.04-0.02,0.08-0.05,0.13-0.07c0.6-0.32,1.18-0.65,1.74-0.99c0.08-0.05,0.17-0.1,0.25-0.15
	c0.58-0.36,1.14-0.73,1.68-1.11c0.08-0.05,0.15-0.11,0.23-0.17c1.13-0.82,2.16-1.69,3.1-2.61c0.01-0.01,0.02-0.02,0.03-0.03
	c1.46-1.45,2.65-3.01,3.56-4.66c0.86,1.79,1.29,3.65,1.29,5.55C72.88,53.18,57.53,62.11,37.94,62.11z"/>
</svg>
