<?xml version="1.0" encoding="utf-8"?>
<!-- Generator: Adobe Illustrator 26.0.1, SVG Export Plug-In . SVG Version: 6.00 Build 0)  -->
<svg version="1.1" id="Слой_1" xmlns="http://www.w3.org/2000/svg" xmlns:xlink="http://www.w3.org/1999/xlink" x="0px" y="0px"
	 viewBox="0 0 80.88 55.88" style="enable-background:new 0 0 80.88 55.88;" xml:space="preserve">
<style type="text/css">
	.st0{fill:#FF6600;}
</style>
<g>
	<path class="st0" d="M44.68,34.39c-2.48-2.26-7.28-2.97-15.1-2.22c-8.39,0.79-13.82,4.57-13.82,9.62c0,5.49,5.71,9.63,13.28,9.63
		c7.31,0,17.71-6.11,17.71-11.81C46.75,37.36,46.07,35.65,44.68,34.39z M29.04,48.41c-5.76,0-10.28-2.91-10.28-6.63
		c0-3.29,4.56-6.01,11.1-6.63c1.91-0.18,3.62-0.27,5.13-0.27c3.83,0,6.4,0.58,7.67,1.73c0.75,0.69,1.09,1.61,1.09,2.99
		C43.75,42.86,35.39,48.41,29.04,48.41z"/>
	<path class="st0" d="M74.65,23.94c-0.69-2.21-1.79-3.55-3.34-4.1c-2.14-0.75-4.83,0.1-8.74,2.73l-0.24,0.16
		c-4.08,2.75-7.61,5.13-6.23,10.08c0.66,2.36,2.17,4.23,4.27,5.26c1.22,0.6,2.58,0.9,4.03,0.9c1.03,0,2.11-0.15,3.2-0.46
		c2.33-0.65,4.4-2.44,5.81-5.04C75.06,30.44,75.53,26.78,74.65,23.94C74.65,23.94,74.65,23.94,74.65,23.94z M70.76,32.06
		c-1.02,1.88-2.43,3.15-3.98,3.58c-1.93,0.54-3.69,0.45-5.11-0.24c-1.33-0.66-2.27-1.82-2.7-3.37c-0.77-2.75,0.98-4.07,5.02-6.79
		l0.24-0.16c2.9-1.95,4.55-2.48,5.48-2.48c0.24,0,0.44,0.04,0.59,0.09c0.22,0.08,0.89,0.31,1.47,2.16
		C72.43,26.9,72.03,29.73,70.76,32.06z"/>
	<path class="st0" d="M80.88,17.13c0-0.07,0-0.16-0.02-0.27c0.02-0.18,0.02-0.36-0.03-0.54c-0.09-0.38-2.37-9.38-8.54-12.38
		c-2.78-1.35-5.86-1.28-9.15,0.21c-0.04,0.02-0.07,0.03-0.11,0.05c-2.87,1.59-6.25,5.31-8.72,8.02c-0.97,1.06-1.8,1.98-2.34,2.48
		c-1.23,1.14-5.19,3.93-8.66,3.21c-1.96-0.41-3.56-1.97-4.74-4.63C35.73,5.18,29.88,0.22,22.94,0.01C22.77,0,22.61,0,22.45,0
		C14.16,0,6.48,6.52,1.81,17.62c-3.4,9.36-1.06,18.01-0.59,19.56v5.46c0,0.71,0.49,1.32,1.19,1.47l4.15,0.89
		c0.1,0.02,0.21,0.03,0.31,0.03c0.29,0,0.57-0.1,0.82-0.27c0.41,0.26,0.87,0.51,1.38,0.7c0.75,0.28,1.5,0.37,2.18,0.37
		c0.28,0,0.55-0.02,0.8-0.04c2.02,5.96,8.56,10.09,16.79,10.09c7.24,0,16.07-4.51,19.99-10.34l0,0c0.01-0.02,0.02-0.03,0.03-0.05
		c0.12-0.18,0.23-0.36,0.34-0.54c1.3-1.85,4.17-4.15,8.4-3.37c1.56,0.84,3.34,1.37,5.28,1.49c0.32,0.02,0.64,0.03,0.96,0.03
		c1.43,0,2.89-0.21,4.37-0.62c3.44-0.95,6.41-3.47,8.38-7.09c2.15-3.95,2.73-8.55,1.58-12.34C79.76,21.95,80.88,18.15,80.88,17.13z
		 M52.89,26.04l-0.02-0.01c-2.52,3.67-8.29,3-10.3,2.44l0,0.01c-2.03-0.61-4.51-0.97-7.56-0.97c-1.78,0-3.79,0.11-5.98,0.33
		c-7.01,0.69-12.38,3.3-15.27,7.1c-1.7-0.67-4.04-0.24-5.69,0.24C8,35.06,7.91,34.97,7.82,34.9c-0.35-0.28-0.81-0.4-1.26-0.3
		l-0.45,0.1c-0.29-2.32-0.72-7.97,1.07-13.07c2.08-5.9,8.27-10.97,14.1-11.54c4.58-0.45,8.47,1.8,11.25,6.5
		c2.95,4.98,6.51,7.77,10.57,8.28c6.04,0.76,11.21-3.88,12.66-5.33c5.77-5.88,10.75-8.79,14.38-8.43c1.33,0.13,2.5,0.72,3.53,1.77
		c-2.16,1.34-3.17,2.36-3.6,3.13c-2.85-0.14-5.91,1-9.97,3.69l-0.25,0.16C57.48,21.44,54.61,23.35,52.89,26.04z M77.78,17.15
		c0.03,0.04,0.07,0.09,0.09,0.12c-0.1,0.59-0.54,1.85-0.96,2.67c-0.14-0.16-0.28-0.33-0.4-0.47c-0.83-0.98-1.78-2.11-2.9-2.88
		c0.55-0.43,1.31-0.94,2.13-1.44C76.57,15.87,77.32,16.65,77.78,17.15z M4.6,18.71C8.7,8.98,15.52,3,22.47,3
		c0.12,0,0.25,0,0.37,0.01c5.67,0.17,10.51,4.41,12.93,11.33c0.01,0.04,0.03,0.07,0.04,0.11c1.59,3.63,3.91,5.79,6.89,6.41
		c4.54,0.95,9.38-2.16,11.31-3.94c0.64-0.59,1.51-1.55,2.53-2.67c2.31-2.54,5.48-6.02,7.9-7.39c2.45-1.09,4.58-1.17,6.54-0.22
		c1.32,0.64,2.43,1.68,3.35,2.87c-1.17-0.79-2.47-1.26-3.88-1.4c-4.64-0.46-10.3,2.68-16.81,9.31c-1.2,1.2-5.47,5.05-10.15,4.46
		c-3.1-0.39-5.91-2.69-8.37-6.83C31.75,9.36,26.73,6.53,21,7.1C13.99,7.78,6.83,13.6,4.36,20.63c-0.68,1.94-1.08,3.92-1.3,5.8
		C3.19,24.03,3.63,21.39,4.6,18.71z M5.37,41.67l-1.15-0.25v-3.26l1.15-0.25V41.67z M10.12,42.65c-0.77-0.29-1.38-0.82-1.72-1.17
		L8.38,38.2c1.55-0.5,2.99-0.69,3.78-0.64c-0.31,0.8-0.53,1.76-0.66,2.75c-0.02,0.16-0.03,0.33-0.05,0.49
		c-0.06,0.69-0.1,1.38-0.05,2.02C10.99,42.84,10.53,42.8,10.12,42.65z M28.85,52.88c-8.24,0-14.45-4.75-14.45-11.04
		c0-0.35,0.02-0.7,0.07-1.04c0-0.02,0.01-0.05,0.01-0.07c0.7-5.24,6.37-9.08,14.85-9.92c2.1-0.21,4.01-0.31,5.69-0.31
		c12.87,0,12.87,6.76,12.87,8.98c0,1.21-0.37,2.41-1.01,3.59c-0.26,0.35-0.48,0.69-0.66,1.01l0.01,0.01
		C42.85,48.92,34.94,52.88,28.85,52.88z M48.16,31.76c1.09-0.15,2.18-0.42,3.22-0.87c-0.03,1.02,0.09,2.12,0.42,3.31
		c0.46,1.65,1.22,3.12,2.21,4.37c-1.17,0.2-2.21,0.59-3.14,1.07c0-0.05,0.01-0.11,0.01-0.16C50.88,36.87,50.25,34.02,48.16,31.76z
		 M73.95,33.97c-1.57,2.9-3.9,4.89-6.54,5.63c-1.48,0.41-2.94,0.58-4.32,0.48c-4.11-0.27-7.32-2.83-8.39-6.68
		c-1.42-5.12,1.78-7.7,6.83-11.05l0.25-0.16c3.54-2.35,6.1-3.34,8.27-3.19c2.52,0.17,4.28,1.8,5.24,4.85
		C76.24,26.89,75.74,30.68,73.95,33.97z"/>
</g>
</svg>
