<?xml version="1.0" encoding="utf-8"?>
<!-- Generator: Adobe Illustrator 26.0.1, SVG Export Plug-In . SVG Version: 6.00 Build 0)  -->
<svg version="1.1" id="Слой_1" xmlns="http://www.w3.org/2000/svg" xmlns:xlink="http://www.w3.org/1999/xlink" x="0px" y="0px"
	 viewBox="0 0 56.99 68.33" style="enable-background:new 0 0 56.99 68.33;" xml:space="preserve">
<style type="text/css">
	.st0{fill:#FF6600;}
</style>
<path class="st0" d="M56.95,66.61L48.69,30.6c1.36-0.48,2.17-1.68,2.2-3.32c0.03-1.77-1.03-4.71-2.69-5.1
	c-0.33-0.08-0.75-0.09-1.4-0.09l-0.93-4.15c-0.18-0.81-0.98-1.32-1.79-1.14c-0.81,0.18-1.32,0.98-1.14,1.79l0.79,3.52
	c-1.37-0.02-2.85-0.13-3.98-0.48c-1.15-0.35-1.89-1.42-3.22-3.42c-0.79-1.2-1.74-2.62-3.04-4.14c3.13-0.75,5.47-3.57,5.47-6.94
	C38.94,3.2,35.74,0,31.8,0s-7.14,3.2-7.14,7.14c0,1.06,0.24,2.07,0.66,2.98c-1.78,0.14-3.36,0.76-4.37,1.37
	c-0.92,0.34-5.37,2.12-8.67,5.43c-3.2,3.2-3.6,11.89-2.29,15.96c0.81,2.52,2.14,3.25,3.11,3.41c0.83,0.14,1.63,0.11,2.38-0.01
	L0.23,60.43C-0.21,61.13,0,62.06,0.7,62.5c0.25,0.16,0.53,0.23,0.8,0.23c0.5,0,0.98-0.25,1.27-0.7l15.35-24.32v5.94
	c0,11-6.89,19.4-6.96,19.49c-0.29,0.35-0.41,0.81-0.32,1.25c0.09,0.44,0.37,0.82,0.76,1.04l5.21,2.78c0.68,0.36,1.52,0.15,1.95-0.48
	c1.09-1.62,6.57-9.75,7.17-11.25c0.44-1.09,1.01-5.82,1.39-9.33c2.65,2.81,5.04,5.44,5.34,5.99c0.37,1.07,0.36,7.97,0.14,13.76
	c-0.02,0.41,0.14,0.8,0.42,1.1c0.28,0.29,0.67,0.46,1.08,0.46h6.27c0.8,0,1.46-0.62,1.5-1.42c0.2-3.92,0.79-16.92-0.27-19.34
	c-0.49-1.12-2.06-3.03-4.59-6.04c-1.72-2.05-4.56-5.44-5-6.5c0.18-1.32,0.35-4.87,0.46-7.53c1.41,1.12,3.15,2.28,4.51,2.51
	c3.57,0.6,6.37,0.87,8.49,0.84l8.34,36.32c0.16,0.69,0.78,1.17,1.46,1.17c0.11,0,0.22-0.01,0.34-0.04
	C56.63,68.22,57.14,67.41,56.95,66.61z M31.8,3c2.28,0,4.14,1.86,4.14,4.14s-1.86,4.14-4.14,4.14s-4.14-1.86-4.14-4.14
	S29.52,3,31.8,3z M37.69,27.16c-1.03-0.17-3.58-2.12-5.34-3.82c-0.43-0.41-1.05-0.53-1.6-0.31c-0.55,0.22-0.92,0.75-0.94,1.34
	c-0.12,3.49-0.38,9.43-0.58,10.49c-0.25,1.39,0.99,3.11,5.69,8.72c1.69,2.02,3.8,4.53,4.14,5.31c0.49,1.23,0.43,9.27,0.09,16.56
	h-3.29c0.19-5.8,0.22-12.32-0.53-13.67c-0.82-1.49-6.4-7.31-8.09-9.05c-0.41-0.42-1.02-0.56-1.57-0.37c-0.55,0.19-0.94,0.69-1,1.27
	c-0.5,5.11-1.21,10.9-1.53,11.75c-0.3,0.74-3.22,5.25-6.11,9.56l-2.47-1.32c2.12-3.04,6.56-10.53,6.56-19.95V32.52
	c0-0.01,0-0.01,0-0.02c0-0.13-0.02-0.26-0.06-0.39c-0.01-0.03-0.02-0.05-0.03-0.08c-0.04-0.12-0.09-0.23-0.16-0.34
	c0,0,0-0.01-0.01-0.01c-0.07-0.11-0.17-0.21-0.27-0.3c-0.01-0.01-0.03-0.02-0.05-0.04c-0.04-0.03-0.08-0.07-0.13-0.1
	c-0.07-0.04-0.14-0.07-0.21-0.1c-0.01,0-0.01-0.01-0.02-0.01c0,0,0,0-0.01,0c-0.13-0.05-0.27-0.09-0.4-0.1c-0.02,0-0.04,0-0.05,0
	c-0.13-0.01-0.26-0.01-0.39,0.02c-0.01,0-0.01,0-0.02,0c-0.13,0.03-0.26,0.07-0.38,0.13c-0.02,0.01-0.04,0.02-0.06,0.03
	c-0.11,0.06-0.21,0.13-0.3,0.22c-0.01,0.01-0.02,0.01-0.03,0.02c-0.02,0.02-2.37,2.3-4.96,1.87c-0.12-0.05-0.65-0.6-1.01-2.39
	c-0.84-4.16,0.08-10.16,1.82-11.9c3.13-3.13,7.36-4.65,7.41-4.66c0.1-0.04,0.41-0.17,0.61-0.26c0.19-0.09,4.39-2.69,7.75,0.77
	c1.74,1.8,2.87,3.49,3.86,4.99c1.4,2.12,2.62,3.94,4.84,4.63c2.25,0.7,5.18,0.64,7.12,0.6c0.44-0.01,0.96-0.02,1.28-0.01
	c0.34,0.53,0.8,1.81,0.59,2.5c-0.04,0.12-0.05,0.17-0.27,0.21c-0.22,0.04-0.47,0.08-0.74,0.1c-0.01,0-0.01,0-0.02,0
	C44.88,28.1,41.82,27.85,37.69,27.16z"/>
</svg>
