<?xml version="1.0" encoding="utf-8"?>
<!-- Generator: Adobe Illustrator 26.0.1, SVG Export Plug-In . SVG Version: 6.00 Build 0)  -->
<svg version="1.1" id="Слой_1" xmlns="http://www.w3.org/2000/svg" xmlns:xlink="http://www.w3.org/1999/xlink" x="0px" y="0px"
	 viewBox="0 0 59.82 64.42" style="enable-background:new 0 0 59.82 64.42;" xml:space="preserve">
<style type="text/css">
	.st0{fill:#FF6600;}
</style>
<path class="st0" d="M54.82,39.48c-0.43-0.24-0.97-0.47-1.65-0.76c-3.12-1.34-8.94-3.84-12.63-11.12l-0.14-0.27
	c-1.16-2.29-2.75-5.42-2.91-6.68c-0.07-0.53,0.14-2.3,0.3-3.72c0.27-2.35,0.55-4.78,0.34-6.19c-0.27-1.83-1.6-2.74-2.92-3.07V2.42
	c0-0.56-0.31-1.08-0.81-1.33c-4.25-2.18-8.83-0.54-10.56,0.23C18.7-0.81,11.03,2.57,10.13,2.99C9.72,3.18,9.41,3.55,9.3,3.99
	c-0.1,0.39-0.83,3.43-1.11,5.15c-2.37,1.87-3.06,6.14-3.42,10.53C4.48,23.1,1.68,39.64,1.65,39.8c-0.01,0.08-0.02,0.17-0.02,0.25
	v7.83c0,0.65,0.42,1.22,1.03,1.42l3.51,1.16c0.01,0.59-0.09,1.84-1.06,2C5,52.48,4.9,52.51,4.8,52.55l-2.84-0.91
	c-0.79-0.25-1.63,0.18-1.89,0.97s0.18,1.63,0.97,1.89l29.69,9.52c0.05,0.01,0.09,0.03,0.14,0.04c0.32,0.07,1.81,0.37,3.61,0.37
	c2.12,0,4.67-0.41,6.31-2.09c0.86-0.88,1.22-1.89,1.26-2.93c2.23,0.36,4.44,0.69,6.57,0.96c1.02,0.13,1.95,0.2,2.8,0.2
	c3.01,0,4.99-0.82,6.02-2.47c1.31-2.11,0.47-4.79-0.32-6.45c0.81-0.23,1.24-0.43,1.36-0.49c0.36-0.18,0.63-0.5,0.76-0.89
	C61.51,43.15,56.47,40.39,54.82,39.48z M53.37,42.11c2.56,1.4,4.08,3.07,3.21,6.56c-1.3,0.41-4.92,1.24-12.13,1.04
	c-0.09-3.24-2.06-4.88-3.48-6.06c-0.4-0.33-0.78-0.65-1.08-0.96c-1.69-1.75-7.68-9.83-9.23-12.6c-0.09-0.17-0.19-0.35-0.28-0.52
	c-0.01-0.01-0.01-0.02-0.02-0.03c-1.37-2.58-2.56-5.57-2.72-6.91c-0.05-0.45,0.05-1.61,0.18-2.86c0.3,1.16,0.66,2.37,1.11,3.62
	c-0.47,0.43-0.64,1.14-0.35,1.75c0.26,0.54,0.79,0.86,1.36,0.86c0.01,0,0.02,0,0.04,0c0.3,0.67,0.62,1.35,0.97,2.04
	c-0.5,0.43-0.67,1.15-0.38,1.77c0.26,0.54,0.79,0.86,1.36,0.86c0.15,0,0.31-0.03,0.46-0.08c0.46,0.74,0.95,1.49,1.48,2.23
	c-0.38,0.44-0.49,1.07-0.23,1.63c0.26,0.54,0.79,0.86,1.36,0.86c0.22,0,0.43-0.05,0.64-0.15c0.01-0.01,0.02-0.01,0.04-0.02
	c0.48,0.57,0.99,1.13,1.52,1.69c-0.56,0.41-0.78,1.16-0.49,1.82c0.25,0.56,0.8,0.9,1.37,0.9c0.2,0,0.41-0.04,0.6-0.13
	c0.19-0.08,0.48-0.21,0.82-0.34c0.42,0.38,0.85,0.75,1.3,1.12c0.28,0.23,0.62,0.34,0.95,0.34c0.43,0,0.87-0.19,1.16-0.55
	c0.47-0.58,0.44-1.41-0.05-1.95c0.84-0.18,1.68-0.27,2.43-0.22c2.6,1.92,5.07,2.98,6.68,3.67C52.56,41.73,53.07,41.94,53.37,42.11z
	 M25.92,37.4c-0.57-0.51-1.11-1.03-1.63-1.56c1.71-0.53,3.98-0.82,6.49-0.08c0.18,0.26,0.37,0.52,0.56,0.79
	C29.25,36.46,27.4,36.87,25.92,37.4z M18.35,27.73c1.78-0.74,4.52-1.39,7.64-0.42c0.11,0.27,0.23,0.55,0.35,0.82
	c-2.89-0.28-5.37,0.41-7.11,1.16C18.92,28.76,18.62,28.24,18.35,27.73z M28,31.48c0.01,0.02,0.03,0.05,0.04,0.07
	c0.12,0.22,0.28,0.48,0.45,0.76c-2.55-0.14-4.74,0.45-6.35,1.11c-0.43-0.53-0.84-1.06-1.23-1.6C22.65,31.17,25.16,30.67,28,31.48z
	 M35.75,24.64c0.23,0.51,0.48,1.05,0.77,1.63c-0.97,0.11-1.9,0.32-2.75,0.58c-0.32-0.61-0.62-1.22-0.89-1.83
	C33.73,24.79,34.71,24.63,35.75,24.64z M42.21,35.09c-0.69,0.14-1.36,0.33-1.99,0.53c-0.53-0.52-1.03-1.06-1.5-1.59
	c0.72-0.15,1.49-0.22,2.32-0.15c0.03,0,0.05,0,0.08,0C41.47,34.3,41.84,34.71,42.21,35.09z M36.65,31.49
	c-0.48-0.65-0.93-1.31-1.35-1.96c0.85-0.21,1.76-0.34,2.69-0.32c0.32,0.61,0.65,1.19,1,1.75C38.15,31.05,37.37,31.24,36.65,31.49z
	 M32.22,3.41v5.62c0,0.42,0.18,0.81,0.49,1.1c0.31,0.28,0.72,0.43,1.14,0.4c0.2-0.02,1.22-0.05,1.33,0.67
	c0.15,1.01-0.13,3.44-0.36,5.4c-0.25,2.2-0.4,3.6-0.3,4.44c0.03,0.21,0.07,0.43,0.12,0.66c-1.05,0.09-2.02,0.29-2.88,0.54
	C29.3,15.28,29.6,9.66,29.6,9.56c0.03-0.41-0.12-0.82-0.4-1.12c-0.28-0.3-0.68-0.48-1.1-0.48h-2.74V3.94
	C26.71,3.38,29.55,2.47,32.22,3.41z M22.37,3.96v6.13c0,0.42,0.18,0.82,0.49,1.1c0.31,0.28,0.72,0.42,1.14,0.4
	c0.44-0.04,1.21,0.02,1.32,0.8c0.15,1.12-0.13,3.76-0.36,5.88c-0.25,2.35-0.4,3.84-0.3,4.72c0.03,0.3,0.1,0.63,0.19,0.99
	c-3.18-0.48-5.92,0.26-7.79,1.06c-3.41-7.93-3.04-14.79-3.04-14.9C14.05,9.71,13.9,9.3,13.62,9c-0.28-0.3-0.68-0.48-1.1-0.48h-1.17
	c0.19-0.96,0.46-2.13,0.69-3.09C14.43,4.45,19.31,2.94,22.37,3.96z M7.76,19.93c0.15-1.79,0.6-7.08,2.28-8.41H11
	c0.05,2.73,0.53,8.56,3.37,15.01c-0.61,0.51-0.72,1.41-0.24,2.05c0.29,0.39,0.75,0.6,1.2,0.6c0.1,0,0.2-0.03,0.3-0.05
	c0.29,0.55,0.61,1.1,0.94,1.65c-0.6,0.51-0.71,1.4-0.23,2.04c0.29,0.39,0.75,0.6,1.2,0.6c0.22,0,0.44-0.07,0.64-0.16
	c0.39,0.55,0.8,1.09,1.23,1.63c-0.06,0.04-0.09,0.07-0.11,0.08c-0.66,0.5-0.79,1.44-0.29,2.1c0.29,0.39,0.74,0.59,1.2,0.59
	c0.32,0,0.63-0.1,0.9-0.3c0.01,0,0.11-0.08,0.27-0.19c0.51,0.55,1.04,1.09,1.6,1.62c-0.36,0.22-0.58,0.38-0.62,0.42
	c-0.66,0.5-0.79,1.43-0.29,2.09c0.29,0.39,0.75,0.6,1.2,0.6c0.31,0,0.63-0.1,0.9-0.3c0.05-0.04,0.49-0.35,1.2-0.72
	c0.45,0.36,0.9,0.72,1.38,1.07c0.27,0.2,0.58,0.29,0.89,0.29c0.46,0,0.91-0.21,1.21-0.61c0.44-0.59,0.37-1.4-0.11-1.91
	c1.48-0.27,3.23-0.28,5.12,0.28c1.57,2.09,3.04,3.93,3.86,4.78c0.42,0.43,0.88,0.81,1.33,1.19c1.72,1.42,3.08,2.55,2.07,6.13
	c-0.54,0.24-2.57,0.83-8.97,0.55c-10.62-0.47-13.19-0.93-15.1-1.97c-0.86-0.47-2.37-2.23-3.58-3.65c-1.35-1.58-2.54-2.96-3.6-3.68
	c-0.89-1.3-3.2-3.12-5.11-3.98C5.38,35.75,7.5,23.03,7.76,19.93z M9.22,47.71C9.19,47.35,9.17,47,9.16,46.68
	c0.26,0.27,0.54,0.57,0.82,0.89L9.22,47.71z M4.63,42.69C5.3,43.11,6,43.64,6.54,44.11c-0.26,0.59-0.46,1.56-0.37,3.2L4.63,46.8
	V42.69z M9.16,50.77l2.82-0.51c0.09-0.02,0.17-0.04,0.26-0.07c1.2,1.37,2.33,2.55,3.38,3.12c1.86,1.01,3.92,1.55,10,1.98
	c0.01,0.9,0.09,2.51,0.53,4.11L8.31,53.68C8.9,52.77,9.13,51.68,9.16,50.77z M38.64,60.24c-1.57,1.61-5.66,1.19-7.07,0.9l-1.21-0.39
	c-1.18-0.52-1.69-3.22-1.73-5.27c1.04,0.06,2.16,0.11,3.4,0.17c1.25,0.06,2.35,0.08,3.34,0.08c0.77,0,1.47-0.02,2.1-0.05
	C38.22,56.66,39.8,59.05,38.64,60.24z M54.9,56.5c-0.61,0.97-2.76,1.29-5.89,0.89c-2.48-0.32-5.06-0.71-7.66-1.14
	c-0.15-0.33-0.32-0.65-0.5-0.96c1.64-0.35,2.33-0.86,2.72-1.34c0.25-0.31,0.41-0.68,0.45-1.05c0.02-0.07,0.03-0.14,0.05-0.21
	c0.91,0.03,1.78,0.05,2.59,0.05c3.2,0,5.63-0.21,7.43-0.47C54.74,53.47,55.53,55.49,54.9,56.5z"/>
</svg>
